<svg xmlns="http://www.w3.org/2000/svg" viewBox="0 0 66.3 66.3" fill="#ccd4db"><path d="M47.4 48v2.1H22.1l.1-2.2 14.6-15.3c1.8-1.8 3.2-3.7 4.3-5.5 1-1.8 1.6-3.4 1.6-4.7 0-2.1-.8-3.7-2.4-4.9s-3.8-1.8-6.6-1.8c-1.8 0-3.6.4-5.5 1.2s-3.5 1.9-5 3.3L22 18.5c1.6-1.5 3.4-2.7 5.5-3.6 2.1-.8 4.2-1.3 6.3-1.3 3.4 0 6.1.8 8.1 2.3s3 3.7 3 6.3c0 1.6-.6 3.4-1.8 5.4s-2.8 4.1-4.8 6.3L24.7 48h22.7zM33.2 66.3C14.9 66.3 0 51.4 0 33.2 0 14.9 14.9 0 33.2 0s33.2 14.9 33.2 33.2c-.1 18.2-15 33.1-33.2 33.1zm0-64.5C15.9 1.8 1.8 15.9 1.8 33.2s14.1 31.4 31.4 31.4 31.4-14.1 31.4-31.4S50.4 1.8 33.2 1.8z"/></svg>