<?xml version="1.0" encoding="utf-8"?>
<!-- Generator: Adobe Illustrator 23.0.1, SVG Export Plug-In . SVG Version: 6.00 Build 0)  -->
<svg version="1.1" id="Layer_1" xmlns="http://www.w3.org/2000/svg" xmlns:xlink="http://www.w3.org/1999/xlink" x="0px" y="0px"
	 viewBox="0 0 66.3 66.3" style="enable-background:new 0 0 66.3 66.3;" xml:space="preserve">
<style type="text/css">
	.st0{fill:#CCD4DB;}
</style>
<g>
	<g>
		<path class="st0" d="M46.3,38.2v2.1h-6.1v10.3h-2.1V40.3H19.5v-2.1L34,14.3h2.2L21.7,38.2h16.4V27.3h2.1v10.9H46.3z"/>
	</g>
	<path class="st0" d="M33.2,66.3C14.9,66.3,0,51.4,0,33.2S14.9,0,33.2,0s33.2,14.9,33.2,33.2S51.4,66.3,33.2,66.3z M33.2,1.8
		C15.9,1.8,1.8,15.9,1.8,33.2c0,17.3,14.1,31.4,31.4,31.4s31.4-14.1,31.4-31.4C64.5,15.9,50.4,1.8,33.2,1.8z"/>
</g>
</svg>
