<?xml version="1.0" encoding="utf-8"?>
<!-- Generator: Adobe Illustrator 23.0.1, SVG Export Plug-In . SVG Version: 6.00 Build 0)  -->
<svg version="1.1" id="Layer_1" xmlns="http://www.w3.org/2000/svg" xmlns:xlink="http://www.w3.org/1999/xlink" x="0px" y="0px"
	 viewBox="0 0 228.8 69" style="enable-background:new 0 0 228.8 69;" xml:space="preserve">
<style type="text/css">
	.st0{fill-rule:evenodd;clip-rule:evenodd;fill:#FF9900;}
	.st1{fill-rule:evenodd;clip-rule:evenodd;}
</style>
<g>
	<g>
		<path class="st0" d="M142,53.9c-13.3,9.8-32.6,15-49.2,15C69.5,69,48.6,60.4,32.7,46c-1.2-1.1-0.1-2.7,1.4-1.8
			c17.1,10,38.2,15.9,60.1,15.9c14.7,0,30.9-3.1,45.8-9.4C142.3,49.9,144.1,52.3,142,53.9z"/>
		<path class="st0" d="M147.5,47.6c-1.7-2.2-11.2-1-15.5-0.5c-1.3,0.2-1.5-1-0.3-1.8c7.6-5.3,20.1-3.8,21.5-2
			c1.5,1.8-0.4,14.3-7.5,20.3c-1.1,0.9-2.1,0.4-1.7-0.8C145.6,58.8,149.2,49.8,147.5,47.6z"/>
	</g>
	<g>
		<path class="st1" d="M132.3,7.5V2.3c0-0.8,0.6-1.3,1.3-1.3l23.3,0c0.7,0,1.3,0.5,1.3,1.3l0,4.5c0,0.7-0.6,1.7-1.8,3.3l-12.1,17.2
			c4.5-0.1,9.2,0.6,13.3,2.9c0.9,0.5,1.2,1.3,1.2,2v5.5c0,0.8-0.8,1.6-1.7,1.2c-7.2-3.8-16.7-4.2-24.6,0c-0.8,0.4-1.7-0.4-1.7-1.2
			v-5.3c0-0.8,0-2.3,0.9-3.6l14-20l-12.2,0C132.9,8.8,132.3,8.3,132.3,7.5z"/>
		<path class="st1" d="M47.3,40h-7.1c-0.7,0-1.2-0.6-1.3-1.2l0-36.3c0-0.7,0.6-1.3,1.4-1.3l6.6,0c0.7,0,1.2,0.6,1.3,1.2v4.7h0.1
			c1.7-4.6,5-6.7,9.3-6.7c4.4,0,7.2,2.1,9.2,6.7c1.7-4.6,5.6-6.7,9.8-6.7c3,0,6.2,1.2,8.2,4c2.2,3.1,1.8,7.5,1.8,11.4l0,22.9
			c0,0.7-0.6,1.3-1.4,1.3h-7.1c-0.7,0-1.3-0.6-1.3-1.3l0-19.3c0-1.5,0.1-5.4-0.2-6.8c-0.5-2.4-2.1-3.1-4.2-3.1c-1.7,0-3.5,1.1-4.2,3
			c-0.7,1.8-0.7,4.9-0.7,7v19.3c0,0.7-0.6,1.3-1.4,1.3h-7.1c-0.7,0-1.3-0.6-1.3-1.3l0-19.3c0-4.1,0.7-10-4.4-10
			c-5.1,0-4.9,5.8-4.9,10l0,19.3C48.7,39.4,48.1,40,47.3,40z"/>
		<path class="st1" d="M178.2,0.4c10.5,0,16.2,9,16.2,20.5c0,11.1-6.3,19.9-16.2,19.9c-10.3,0-15.9-9-15.9-20.3
			C162.3,9.1,168,0.4,178.2,0.4z M178.3,7.8c-5.2,0-5.6,7.1-5.6,11.5c0,4.4-0.1,13.9,5.5,13.9c5.5,0,5.8-7.6,5.8-12.3
			c0-3.1-0.1-6.7-1.1-9.6C182.1,8.8,180.5,7.8,178.3,7.8z"/>
		<path class="st1" d="M208.1,40H201c-0.7,0-1.3-0.6-1.3-1.3l0-36.4c0.1-0.7,0.6-1.2,1.4-1.2l6.6,0c0.6,0,1.1,0.5,1.3,1v5.6h0.1
			c2-5,4.8-7.3,9.6-7.3c3.2,0,6.3,1.1,8.3,4.3c1.9,2.9,1.9,7.8,1.9,11.3v22.9c-0.1,0.6-0.7,1.1-1.4,1.1h-7.1c-0.7,0-1.2-0.5-1.3-1.1
			V19.1c0-4,0.5-9.8-4.4-9.8c-1.7,0-3.3,1.1-4.1,2.9c-1,2.2-1.1,4.4-1.1,6.9v19.6C209.4,39.4,208.8,40,208.1,40z"/>
		<path class="st1" d="M113.7,22.6c0,2.8,0.1,5.1-1.3,7.5c-1.1,2-2.9,3.2-4.9,3.2c-2.7,0-4.3-2.1-4.3-5.1c0-6,5.4-7.1,10.5-7.1V22.6
			z M120.8,39.9c-0.5,0.4-1.1,0.4-1.7,0.2c-2.4-2-2.8-2.9-4.1-4.7c-3.9,4-6.6,5.1-11.7,5.1c-6,0-10.6-3.7-10.6-11
			c0-5.8,3.1-9.7,7.6-11.6c3.8-1.7,9.2-2,13.3-2.5v-0.9c0-1.7,0.1-3.7-0.9-5.1c-0.9-1.3-2.5-1.8-4-1.8c-2.7,0-5.1,1.4-5.7,4.3
			c-0.1,0.6-0.6,1.3-1.2,1.3l-6.9-0.7c-0.6-0.1-1.2-0.6-1.1-1.5C95.6,2.5,103.1,0,109.9,0c3.4,0,8,0.9,10.7,3.5
			c3.4,3.2,3.1,7.5,3.1,12.2v11c0,3.3,1.4,4.8,2.7,6.6c0.5,0.6,0.6,1.4,0,1.9C124.8,36.4,122.3,38.6,120.8,39.9L120.8,39.9z"/>
		<path class="st1" d="M20.9,22.6c0,2.8,0.1,5.1-1.3,7.5c-1.1,2-2.9,3.2-4.9,3.2c-2.7,0-4.3-2.1-4.3-5.1c0-6,5.4-7.1,10.5-7.1V22.6z
			 M28,39.9c-0.5,0.4-1.1,0.4-1.7,0.2c-2.4-2-2.8-2.9-4.1-4.7c-3.9,4-6.6,5.1-11.7,5.1c-6,0-10.6-3.7-10.6-11
			c0-5.8,3.1-9.7,7.6-11.6c3.8-1.7,9.2-2,13.3-2.5v-0.9c0-1.7,0.1-3.7-0.9-5.1c-0.9-1.3-2.5-1.8-4-1.8c-2.7,0-5.1,1.4-5.7,4.3
			c-0.1,0.6-0.6,1.3-1.2,1.3l-6.9-0.7c-0.6-0.1-1.2-0.6-1.1-1.5C2.8,2.5,10.3,0,17,0c3.4,0,7.9,0.9,10.7,3.5
			c3.4,3.2,3.1,7.5,3.1,12.2v11c0,3.3,1.4,4.8,2.7,6.6c0.5,0.6,0.6,1.4,0,1.9C32,36.4,29.4,38.6,28,39.9L28,39.9z"/>
	</g>
</g>
</svg>
