<svg xmlns="http://www.w3.org/2000/svg" viewBox="0 0 135.8 142.4" fill="#fff"><path d="M65.2 102c-1.2-1.2-2.7-2-4.3-2.4s-3.7-.8-6.2-1.2l-5.5-1c-1.4-.4-2.6-1-3.6-1.9s-1.7-2.2-1.9-3.8c-.3-1.9.3-3.5 1.8-4.9s3.7-2.3 6.6-2.8c1.6-.3 3.3-.3 5-.1s3.3.6 4.8 1.2l.7-2.1c-1.4-.6-3.1-1.1-4.9-1.4a16.31 16.31 0 0 0-5.4 0l-.9-5.4-1.8.3.9 5.5c-3.2.7-5.5 2-7.2 3.8-1.6 1.8-2.3 4-1.9 6.4.3 2.1 1.1 3.7 2.3 4.8s2.6 1.9 4.2 2.4c1.6.4 3.6.8 6.2 1.2l5.6 1c1.4.4 2.6 1 3.7 1.9s1.7 2.2 2 3.9c.3 2.2-.3 4-1.9 5.6s-4 2.6-7.1 3.1c-2.1.3-4.3.2-6.6-.3s-4.2-1.5-5.9-2.8l-.8 2.1c1.8 1.3 3.9 2.2 6.2 2.9 2.4.6 4.7.7 7 .4l1 6.2 1.8-.3-1-6.3c3.4-.7 5.9-2.1 7.6-4.1s2.4-4.3 2-6.9c-.4-2.2-1.2-3.8-2.5-5zm27.6 7.2l9.4-13.1c2.9-3.9 5-7.6 6.3-10.9 1.4-3.3 1.8-6.4 1.4-9.2s-1.7-5.2-3.7-7.1-4.5-3.3-7.6-4c-1.7-.4-3.5-.6-5.5-.6-1.5 0-3.1.1-4.7.4C80.9 66 73.7 69.9 67 76.6l7.2 9.7c2.2-2.6 4.5-4.7 7-6.4s4.8-2.7 7-3c.7-.1 1.3-.2 1.9-.2 1.2 0 2.1.2 3 .6 1.2.6 2 1.7 2.2 3.2.2 1.2-.1 2.6-.8 4.4s-1.8 3.6-3.1 5.5l-16.7 23.7 1.6 9.5 41.8-6.7-1.8-11.5-23.5 3.8zm-14.8 12l-1.1-6.4 16.2-23c1.4-2 2.5-4 3.3-5.9.9-2.2 1.2-4 1-5.6-.4-2.2-1.5-3.9-3.4-4.8-1.1-.6-2.5-.9-4-.9-.7 0-1.4.1-2.2.2-2.5.4-5.2 1.5-7.9 3.3-2 1.3-3.8 2.9-5.6 4.7l-4.4-6c5.9-5.5 12.3-8.9 18.9-9.9 1.5-.2 2.9-.4 4.3-.4 1.7 0 3.4.2 4.9.6 2.7.6 4.9 1.8 6.6 3.4s2.6 3.5 3 5.9 0 5.1-1.2 8c-1.3 3.1-3.4 6.6-6.1 10.4L91 107.9l-3.1 4.3 5.2-.8 21.3-3.4 1.1 7.2-37.5 6zm45.9-72.8l-57.3 8.8 2.8-7.1c3.8 1.4 7.5 2 10.8 2 5.9 0 10.5-2.1 12.1-6 1.5-3.8-.2-8.4-4.6-12.6l4-18.9c2.5-.2 4.3-1.1 5-2.7 1.3-3.2-2.9-7.8-9.2-10.3C84.7.5 82.1 0 79.8 0c-3.1 0-5.4 1-6.1 2.8-.6 1.6.1 3.5 1.8 5.4l-10 16.5c-6 0-10.5 2.2-12 6-2.4 6.1 3.7 14.1 13.9 18.5l-3.3 8.3-46.1 7-18 42.6 29.9 35.2 105.9-16.2-11.9-77.7zM64.8 29.9c.1-.1.1-.3.3-.4l12-19.7a21.64 21.64 0 0 0 5.8 3.4c2.3.9 4.5 1.4 6.5 1.5l-4.8 22.5v.1c0 .2-.1.4-.1.5-.4 1-1.8 1.7-3.8 1.9-2.3.2-5.1-.3-7.8-1.4-5.8-2.4-8.9-6.3-8.1-8.4zM75.7 3.6c.3-.7 1.6-1.4 4.1-1.4 2.1 0 4.5.5 6.8 1.4 2.7 1.1 5.1 2.6 6.6 4.3 1.1 1.2 1.6 2.4 1.3 3.1s-1.6 1.4-4.1 1.4c-2.1 0-4.5-.5-6.8-1.4-2.7-1.1-5.1-2.6-6.6-4.3-1-1.2-1.5-2.4-1.3-3.1zM55.5 31.5c1-2.6 4.2-4.2 8.5-4.5l-.7 1.2c-.2.3-.4.6-.5.9-1.4 3.6 2.7 8.5 9.3 11.2 2.6 1 5.3 1.6 7.6 1.6.4 0 .8 0 1.2-.1 2.9-.3 4.9-1.4 5.6-3.3.1-.3.2-.6.2-1l.3-1.4c2.9 3.2 4.1 6.6 3.1 9.2-2 5-11.6 6.1-21 2.4-9.3-3.8-15.6-11.2-13.6-16.2zM2.6 106.7l17-40.2 43.6-6.7-2.3 5.8c-.2.6.1 1.2.6 1.4.1.1.3.1.4.1.4 0 .9-.3 1-.7l2.8-7 9.8-1.5 46.6-7.1 11.2 73.5L30.8 140 2.6 106.7zm24.2-8.6a5.84 5.84 0 0 0-4.6-1.1c-3.4.5-5.7 3.7-5.2 7 .2 1.6 1.1 3.1 2.4 4 1.1.8 2.3 1.2 3.6 1.2.3 0 .6 0 .9-.1 3.4-.5 5.7-3.7 5.2-7-.1-1.6-1-3-2.3-4zm-.5 7.3c-.6.9-1.5 1.4-2.6 1.6-1 .2-2.1-.1-2.9-.7-.9-.6-1.4-1.5-1.6-2.6-.2-1 .1-2.1.7-2.9.6-.9 1.5-1.4 2.6-1.6s2.1.1 2.9.7 1.4 1.6 1.6 2.6-.1 2.1-.7 2.9z"/></svg>