<?xml version="1.0" encoding="utf-8"?>
<!-- Generator: Adobe Illustrator 23.0.1, SVG Export Plug-In . SVG Version: 6.00 Build 0)  -->
<svg version="1.1" id="Layer_1" xmlns="http://www.w3.org/2000/svg" xmlns:xlink="http://www.w3.org/1999/xlink" x="0px" y="0px"
	 viewBox="0 0 135.8 142.4" style="enable-background:new 0 0 135.8 142.4;" xml:space="preserve">
<style type="text/css">
	.st0{fill:#FFFFFF;}
</style>
<g>
	<path class="st0" d="M65.2,102c-1.2-1.2-2.7-2-4.3-2.4c-1.6-0.4-3.7-0.8-6.2-1.2c-2.3-0.3-4.1-0.7-5.5-1c-1.4-0.4-2.6-1-3.6-1.9
		c-1-0.9-1.7-2.2-1.9-3.8c-0.3-1.9,0.3-3.5,1.8-4.9c1.5-1.4,3.7-2.3,6.6-2.8c1.6-0.3,3.3-0.3,5-0.1c1.7,0.2,3.3,0.6,4.8,1.2l0.7-2.1
		c-1.4-0.6-3.1-1.1-4.9-1.4s-3.6-0.3-5.4,0l-0.9-5.4l-1.8,0.3l0.9,5.5c-3.2,0.7-5.5,2-7.2,3.8c-1.6,1.8-2.3,4-1.9,6.4
		c0.3,2.1,1.1,3.7,2.3,4.8c1.2,1.1,2.6,1.9,4.2,2.4c1.6,0.4,3.6,0.8,6.2,1.2c2.3,0.3,4.1,0.6,5.6,1c1.4,0.4,2.6,1,3.7,1.9
		c1.1,0.9,1.7,2.2,2,3.9c0.3,2.2-0.3,4-1.9,5.6c-1.6,1.6-4,2.6-7.1,3.1c-2.1,0.3-4.3,0.2-6.6-0.3c-2.3-0.5-4.2-1.5-5.9-2.8l-0.8,2.1
		c1.8,1.3,3.9,2.2,6.2,2.9c2.4,0.6,4.7,0.7,7,0.4l1,6.2l1.8-0.3l-1-6.3c3.4-0.7,5.9-2.1,7.6-4.1c1.7-2,2.4-4.3,2-6.9
		C67.3,104.8,66.5,103.2,65.2,102z"/>
	<path class="st0" d="M92.8,109.2l9.4-13.1c2.9-3.9,5-7.6,6.3-10.9c1.4-3.3,1.8-6.4,1.4-9.2c-0.4-2.8-1.7-5.2-3.7-7.1
		c-2-1.9-4.5-3.3-7.6-4c-1.7-0.4-3.5-0.6-5.5-0.6c-1.5,0-3.1,0.1-4.7,0.4C80.9,66,73.7,69.9,67,76.6l7.2,9.7c2.2-2.6,4.5-4.7,7-6.4
		c2.5-1.7,4.8-2.7,7-3c0.7-0.1,1.3-0.2,1.9-0.2c1.2,0,2.1,0.2,3,0.6c1.2,0.6,2,1.7,2.2,3.2c0.2,1.2-0.1,2.6-0.8,4.4
		c-0.7,1.8-1.8,3.6-3.1,5.5l-16.7,23.7l1.6,9.5l41.8-6.7l-1.8-11.5L92.8,109.2z M78,121.2l-1.1-6.4l16.2-23c1.4-2,2.5-4,3.3-5.9
		c0.9-2.2,1.2-4,1-5.6c-0.4-2.2-1.5-3.9-3.4-4.8c-1.1-0.6-2.5-0.9-4-0.9c-0.7,0-1.4,0.1-2.2,0.2c-2.5,0.4-5.2,1.5-7.9,3.3
		c-2,1.3-3.8,2.9-5.6,4.7l-4.4-6c5.9-5.5,12.3-8.9,18.9-9.9c1.5-0.2,2.9-0.4,4.3-0.4c1.7,0,3.4,0.2,4.9,0.6c2.7,0.6,4.9,1.8,6.6,3.4
		c1.7,1.6,2.6,3.5,3,5.9c0.4,2.4,0,5.1-1.2,8c-1.3,3.1-3.4,6.6-6.1,10.4L91,107.9l-3.1,4.3l5.2-0.8l21.3-3.4l1.1,7.2L78,121.2z"/>
	<path class="st0" d="M123.9,48.4l-57.3,8.8l2.8-7.1c3.8,1.4,7.5,2,10.8,2c5.9,0,10.5-2.1,12.1-6c1.5-3.8-0.2-8.4-4.6-12.6l4-18.9
		c2.5-0.2,4.3-1.1,5-2.7c1.3-3.2-2.9-7.8-9.2-10.3C84.7,0.5,82.1,0,79.8,0c-3.1,0-5.4,1-6.1,2.8c-0.6,1.6,0.1,3.5,1.8,5.4l-10,16.5
		c-6,0-10.5,2.2-12,6c-2.4,6.1,3.7,14.1,13.9,18.5l-3.3,8.3l-46.1,7L0,107.1l29.9,35.2l105.9-16.2L123.9,48.4z M64.8,29.9
		c0.1-0.1,0.1-0.3,0.3-0.4l12-19.7c1.6,1.3,3.5,2.5,5.8,3.4c2.3,0.9,4.5,1.4,6.5,1.5l-4.8,22.5l0,0.1c0,0.2-0.1,0.4-0.1,0.5
		c-0.4,1-1.8,1.7-3.8,1.9c-2.3,0.2-5.1-0.3-7.8-1.4C67.1,35.9,64,32,64.8,29.9z M75.7,3.6c0.3-0.7,1.6-1.4,4.1-1.4
		c2.1,0,4.5,0.5,6.8,1.4c2.7,1.1,5.1,2.6,6.6,4.3c1.1,1.2,1.6,2.4,1.3,3.1c-0.3,0.7-1.6,1.4-4.1,1.4c-2.1,0-4.5-0.5-6.8-1.4
		c-2.7-1.1-5.1-2.6-6.6-4.3C76,5.5,75.5,4.3,75.7,3.6z M55.5,31.5c1-2.6,4.2-4.2,8.5-4.5l-0.7,1.2c-0.2,0.3-0.4,0.6-0.5,0.9
		c-1.4,3.6,2.7,8.5,9.3,11.2c2.6,1,5.3,1.6,7.6,1.6c0.4,0,0.8,0,1.2-0.1c2.9-0.3,4.9-1.4,5.6-3.3c0.1-0.3,0.2-0.6,0.2-1l0.3-1.4
		c2.9,3.2,4.1,6.6,3.1,9.2c-2,5-11.6,6.1-21,2.4C59.8,43.9,53.5,36.5,55.5,31.5z M2.6,106.7l17-40.2l43.6-6.7l-2.3,5.8
		c-0.2,0.6,0.1,1.2,0.6,1.4c0.1,0.1,0.3,0.1,0.4,0.1c0.4,0,0.9-0.3,1-0.7l2.8-7l9.8-1.5l46.6-7.1l11.2,73.5L30.8,140L2.6,106.7z"/>
	<path class="st0" d="M26.8,98.1c-1.3-1-3-1.4-4.6-1.1c-3.4,0.5-5.7,3.7-5.2,7v0c0.2,1.6,1.1,3.1,2.4,4c1.1,0.8,2.3,1.2,3.6,1.2
		c0.3,0,0.6,0,0.9-0.1c3.4-0.5,5.7-3.7,5.2-7C29,100.5,28.1,99.1,26.8,98.1z M26.3,105.4c-0.6,0.9-1.5,1.4-2.6,1.6
		c-1,0.2-2.1-0.1-2.9-0.7c-0.9-0.6-1.4-1.5-1.6-2.6c-0.2-1,0.1-2.1,0.7-2.9c0.6-0.9,1.5-1.4,2.6-1.6s2.1,0.1,2.9,0.7
		s1.4,1.6,1.6,2.6C27.2,103.5,26.9,104.6,26.3,105.4z"/>
</g>
</svg>
