<?xml version="1.0" encoding="utf-8"?>
<!-- Generator: Adobe Illustrator 23.0.1, SVG Export Plug-In . SVG Version: 6.00 Build 0)  -->
<svg version="1.1" id="Layer_1" xmlns="http://www.w3.org/2000/svg" xmlns:xlink="http://www.w3.org/1999/xlink" x="0px" y="0px"
	 viewBox="0 0 216.4 99.4" style="enable-background:new 0 0 216.4 99.4;" xml:space="preserve">
<style type="text/css">
	.st0{fill:#FFFFFF;}
	.st1{fill:url(#SVGID_1_);}
</style>
<g>
	<g>
		<g>
			<path class="st0" d="M61.2,58.6h11.2l0,2.7h-8.1v4.4h7.4v2.7h-7.4v6.4h-3.1V58.6z"/>
			<path class="st0" d="M74.7,58.6h3.1V72h7v2.8H74.7V58.6z"/>
			<path class="st0" d="M99,59.4c1.3,0.7,2.4,1.7,3.1,3c0.8,1.3,1.1,2.7,1.1,4.2c0,1.5-0.4,3-1.1,4.2c-0.8,1.3-1.8,2.3-3.1,3
				c-1.3,0.7-2.8,1.1-4.4,1.1c-1.6,0-3.1-0.4-4.4-1.1c-1.3-0.7-2.4-1.8-3.1-3c-0.8-1.3-1.1-2.7-1.1-4.2c0-1.5,0.4-3,1.1-4.2
				c0.8-1.3,1.8-2.3,3.1-3c1.3-0.7,2.8-1.1,4.4-1.1C96.2,58.3,97.7,58.7,99,59.4z M91.9,61.9c-0.9,0.5-1.5,1.2-2,2
				c-0.5,0.8-0.7,1.8-0.7,2.8c0,1,0.3,2,0.8,2.8c0.5,0.9,1.2,1.5,2,2c0.8,0.5,1.8,0.7,2.7,0.7c1,0,1.9-0.2,2.7-0.7
				c0.8-0.5,1.5-1.2,2-2c0.5-0.9,0.7-1.8,0.7-2.8c0-1-0.2-2-0.7-2.8c-0.5-0.8-1.1-1.5-2-2c-0.8-0.5-1.7-0.7-2.7-0.7
				C93.7,61.1,92.8,61.4,91.9,61.9z"/>
			<path class="st0" d="M116.2,74.8l-2.8-4.8c-0.1,0-0.3,0-0.6,0h-3.7v4.8H106V58.6h6.8c2.1,0,3.7,0.5,4.9,1.5
				c1.1,1,1.7,2.4,1.7,4.1c0,1.3-0.3,2.4-0.8,3.2c-0.5,0.9-1.3,1.6-2.4,2l3.6,5.4H116.2z M109.1,67.3h3.7c1.2,0,2.1-0.3,2.7-0.8
				c0.6-0.5,0.9-1.3,0.9-2.3c0-1-0.3-1.7-0.9-2.2c-0.6-0.5-1.5-0.7-2.7-0.7h-3.7V67.3z"/>
			<path class="st0" d="M122.8,58.6h3.1v16.2h-3.1V58.6z"/>
			<path class="st0" d="M141,59.6c1.3,0.7,2.3,1.7,3,2.9c0.7,1.2,1.1,2.6,1.1,4.2s-0.4,3-1.1,4.2c-0.7,1.2-1.8,2.2-3.1,2.9
				c-1.3,0.7-2.8,1-4.4,1h-6.6V58.6h6.8C138.3,58.6,139.7,58.9,141,59.6z M139.4,71.4c0.8-0.5,1.4-1.1,1.9-1.9
				c0.4-0.8,0.7-1.7,0.7-2.8c0-1-0.2-2-0.7-2.8c-0.5-0.8-1.1-1.5-1.9-1.9c-0.8-0.5-1.7-0.7-2.7-0.7H133v10.8h3.7
				C137.7,72.1,138.6,71.8,139.4,71.4z"/>
			<path class="st0" d="M159.4,74.8l-1.4-3.4h-7.9l-1.4,3.4h-3.2l7.1-16.2h3.2l7,16.2H159.4z M151.2,68.7h5.7l-2.8-6.8L151.2,68.7z"
				/>
			<path class="st0" d="M170.4,58.6h11.2l0,2.7h-8.1v4.4h7.4v2.7h-7.4v6.4h-3.1V58.6z"/>
			<path class="st0" d="M195.7,59.4c1.3,0.7,2.4,1.7,3.1,3c0.8,1.3,1.1,2.7,1.1,4.2c0,1.5-0.4,3-1.1,4.2c-0.8,1.3-1.8,2.3-3.1,3
				c-1.3,0.7-2.8,1.1-4.4,1.1s-3.1-0.4-4.4-1.1c-1.3-0.7-2.4-1.8-3.1-3c-0.8-1.3-1.1-2.7-1.1-4.2c0-1.5,0.4-3,1.1-4.2
				c0.8-1.3,1.8-2.3,3.1-3c1.3-0.7,2.8-1.1,4.4-1.1S194.4,58.7,195.7,59.4z M188.6,61.9c-0.9,0.5-1.5,1.2-2,2
				c-0.5,0.8-0.7,1.8-0.7,2.8c0,1,0.3,2,0.8,2.8c0.5,0.9,1.2,1.5,2,2c0.8,0.5,1.8,0.7,2.7,0.7c1,0,1.9-0.2,2.7-0.7
				c0.8-0.5,1.5-1.2,2-2c0.5-0.9,0.7-1.8,0.7-2.8c0-1-0.2-2-0.7-2.8c-0.5-0.8-1.1-1.5-2-2c-0.8-0.5-1.7-0.7-2.7-0.7
				C190.4,61.1,189.5,61.4,188.6,61.9z"/>
			<path class="st0" d="M212.9,74.8l-2.8-4.8c-0.1,0-0.3,0-0.6,0h-3.7v4.8h-3.1V58.6h6.8c2.1,0,3.7,0.5,4.9,1.5
				c1.1,1,1.7,2.4,1.7,4.1c0,1.3-0.3,2.4-0.8,3.2c-0.5,0.9-1.4,1.6-2.4,2l3.6,5.4H212.9z M205.8,67.3h3.7c1.2,0,2.1-0.3,2.7-0.8
				s0.9-1.3,0.9-2.3c0-1-0.3-1.7-0.9-2.2c-0.6-0.5-1.5-0.7-2.7-0.7h-3.7V67.3z"/>
			<path class="st0" d="M61.2,82.9h11.9v2.7h-8.8v4h7.9v2.7h-7.9v4.1h9.1v2.7H61.2V82.9z"/>
			<path class="st0" d="M75.2,82.9h3.6l3.7,5.3l3.7-5.3H90l-5.5,7.8l5.9,8.5h-3.7l-4.2-5.8l-4.1,5.8h-3.6l5.8-8.3L75.2,82.9z"/>
			<path class="st0" d="M104.3,84.4c1.1,1,1.7,2.4,1.7,4.1c0,1.9-0.6,3.3-1.7,4.3c-1.1,1-2.7,1.5-4.7,1.5H96v4.8h-3.1V82.9h6.7
				C101.6,82.9,103.1,83.4,104.3,84.4z M102,90.9c0.6-0.5,0.9-1.3,0.9-2.3c0-1-0.3-1.7-0.9-2.2c-0.6-0.5-1.5-0.7-2.7-0.7H96v6h3.4
				C100.5,91.6,101.4,91.4,102,90.9z"/>
			<path class="st0" d="M120.3,83.8c1.3,0.7,2.4,1.7,3.1,3c0.8,1.3,1.1,2.7,1.1,4.2c0,1.5-0.4,3-1.1,4.2s-1.8,2.3-3.1,3
				c-1.3,0.7-2.8,1.1-4.4,1.1c-1.6,0-3.1-0.4-4.4-1.1c-1.3-0.7-2.4-1.8-3.1-3c-0.8-1.3-1.1-2.7-1.1-4.2c0-1.5,0.4-3,1.1-4.2
				c0.8-1.3,1.8-2.3,3.1-3c1.3-0.7,2.8-1.1,4.4-1.1C117.5,82.7,119,83.1,120.3,83.8z M113.2,86.2c-0.9,0.5-1.5,1.2-2,2
				c-0.5,0.8-0.7,1.8-0.7,2.8c0,1,0.3,2,0.8,2.8c0.5,0.9,1.2,1.5,2,2c0.8,0.5,1.8,0.7,2.7,0.7c1,0,1.9-0.2,2.7-0.7
				c0.8-0.5,1.5-1.2,2-2c0.5-0.9,0.7-1.8,0.7-2.8c0-1-0.2-2-0.7-2.8c-0.5-0.8-1.1-1.5-2-2c-0.8-0.5-1.7-0.7-2.7-0.7
				C114.9,85.5,114,85.7,113.2,86.2z"/>
			<path class="st0" d="M137.4,99.2l-2.8-4.8c-0.1,0-0.3,0-0.6,0h-3.7v4.8h-3.1V82.9h6.8c2.1,0,3.7,0.5,4.9,1.5
				c1.1,1,1.7,2.4,1.7,4.1c0,1.3-0.3,2.4-0.8,3.2c-0.5,0.9-1.3,1.6-2.4,2l3.6,5.4H137.4z M130.4,91.6h3.7c1.2,0,2.1-0.3,2.7-0.8
				s0.9-1.3,0.9-2.3c0-1-0.3-1.7-0.9-2.2s-1.5-0.7-2.7-0.7h-3.7V91.6z"/>
			<path class="st0" d="M142.2,82.9h13.2v2.8h-5.1v13.5h-3.1V85.7h-5.1V82.9z"/>
		</g>
	</g>
	<linearGradient id="SVGID_1_" gradientUnits="userSpaceOnUse" x1="-2.9436" y1="38.0968" x2="144.7549" y2="47.7676">
		<stop  offset="0" style="stop-color:#51D4ED"/>
		<stop  offset="0.534" style="stop-color:#4D9DFF"/>
		<stop  offset="1" style="stop-color:#5CACFF"/>
	</linearGradient>
	<path class="st1" d="M132.6,16.1l-3.9,3.9l6.5,6.5h-10.5c-17.8,0-38.2,0-50.7,8.7l0-0.1c-2.9,2-5.4,2.9-8.3,2.9
		c-3.5,0-6-1.7-6.2-6.6c10.4-1.1,20.5-3.6,20.5-12.6c0-4.5-3.7-8.4-10.9-8.4c-10.7,0-15.6,8.2-16.9,16h-7.5l2.9-16.2
		c0.4-3,1.9-4.5,5-4.5c1.4,0,3.2,0.3,5,1.4l2.7-4.8C57.9,1,55.4,0,51.9,0c-7.1,0-11.2,4.1-12,9.9l-3,16.7H24.2l2.9-16.2
		c0.4-3,1.9-4.5,5-4.5c1.4,0,3.2,0.3,5,1.4l2.7-4.8C37.6,1,35.1,0,31.6,0c-7.1,0-11.2,4.1-12,9.9l-3,16.7h-5.1l0,0H0.8L0,32.1h15.9
		l-4.8,32.8c-0.9,6.3-3.4,8.1-7.9,9.9l2,5.6c7.4-2.9,12-6,13.4-15.7l4.8-32.6h0.2v0h12.6l-4.8,32.8c-0.9,6.3-3.4,8.1-7.9,9.9l2,5.6
		c7.4-2.9,12-6,13.4-15.7L43.7,32h8c0.4,7.3,4.8,12,13,12c4.6,0,8.6-1.6,12-4.1l0,0c11-7.9,30.1-7.9,47.9-7.9h10.5l-6.5,6.5l3.9,3.9
		l13.2-13.2L132.6,16.1z M68.5,16c2.8,0,3.6,1.9,3.6,3.2c0,4.1-3.8,6.4-12.3,7.2C60.6,21.3,63,16,68.5,16z"/>
</g>
</svg>
