<?xml version="1.0" encoding="utf-8"?>
<!-- Generator: Adobe Illustrator 23.0.1, SVG Export Plug-In . SVG Version: 6.00 Build 0)  -->
<svg version="1.1" id="Layer_1" xmlns="http://www.w3.org/2000/svg" xmlns:xlink="http://www.w3.org/1999/xlink" x="0px" y="0px"
	 viewBox="0 0 462.9 53.3" style="enable-background:new 0 0 462.9 53.3;" xml:space="preserve">
<style type="text/css">
	.st0{fill-rule:evenodd;clip-rule:evenodd;fill:#005AAA;}
</style>
<path class="st0" d="M211.6,29.9l15.3-17l-3.7,17H211.6z M272.3,9.9l-36.7,26.6l-5.2,9.3l8.2-44.5H228l-39.7,42.5l-4-22.9l28.6-19.7
	h-13.2l-27,18.8l10.5-18.8h-10.5l-24.9,44.5h10.5l7.9-14.1l7.9-5.3l2.6,19.4h21l7.5-8.3h16.2l-1.8,8.3h48.1l4.9-8.7h-23.8l37.8-27.8
	l4.5-8.1h-34.5l-5,8.7L272.3,9.9L272.3,9.9z M303,9.9h8.3c4.1,0,6.1,1.3,4.7,5.4c-1.1,3.1-4.1,6.6-11.4,6.6h-8.3L303,9.9z
	 M297.4,1.3l-24.9,44.5H283l8.5-15.3h10c18.4,0,24.6-12.5,26.2-17.1c3.8-10.9-4.5-12.2-9.6-12.2L297.4,1.3L297.4,1.3z M340,38.4
	c-6.9,0-7.6-4.9-5.5-11.2c2.4-6.9,9.8-18.6,20.8-18.6c8.1,0,7.2,6.3,5.5,11.2C358.5,26.6,350.9,38.4,340,38.4z M336.2,47.1
	c19.8,0,32.6-17.6,36.5-28.7c4-11.6-0.8-18.4-13.1-18.4c-19.9,0-33,17.7-36.8,28.7C320.8,34.2,318.4,47.1,336.2,47.1L336.2,47.1z
	 M369.2,31.4c-0.6,1.1-1.1,2.2-1.5,3.3c-3.5,10.1,4.8,12.4,13.7,12.4c14.2,0,23-7.6,26.2-16.7c2.3-6.7-0.8-9.4-10.9-11.9
	c-5-1.3-6.8-2.3-5.9-5c1.5-4.3,7.5-4.8,9.9-4.8c3.4,0,6.2,0.8,5.2,3.8c-0.1,0.4-0.2,0.7-0.4,1.1h10c0.4-0.9,0.8-1.8,1.1-2.7
	C420,0.8,409.5,0,404.3,0c-14.1,0-22.3,6.2-25.3,14.8c-3,8.7,2.9,10.4,8.3,12c4.9,1.4,9.5,2,8.1,6c-0.6,1.8-2.8,5.7-10.9,5.7
	c-7.1,0-6.1-3.8-5.7-5c0.2-0.7,0.5-1.3,1-2L369.2,31.4L369.2,31.4z M434.1,9.9l-20,35.9h10.5l20-35.9H458l4.9-8.7h-37.3l-4.9,8.7
	L434.1,9.9L434.1,9.9z M139.4,1.2H0l85.9,52.1H110l1.8-2.9l15.8-28.3H91.8l12.2,9.7H88.9L66.2,17.3h64.2L139.4,1.2L139.4,1.2z"/>
</svg>
