<?xml version="1.0" encoding="utf-8"?>
<!-- Generator: Adobe Illustrator 23.0.1, SVG Export Plug-In . SVG Version: 6.00 Build 0)  -->
<svg version="1.1" id="Layer_1" xmlns="http://www.w3.org/2000/svg" xmlns:xlink="http://www.w3.org/1999/xlink" x="0px" y="0px"
	 viewBox="0 0 187.1 22.1" style="enable-background:new 0 0 187.1 22.1;" xml:space="preserve">
<style type="text/css">
	.st0{fill-rule:evenodd;clip-rule:evenodd;fill:#EF7D00;}
</style>
<g>
	<path class="st0" d="M143.3,14.6c-1,3.3-3.8,4.7-7.1,4.7c-4.2,0-7.5-2.3-7.5-7.6c0-5.2,3.4-7.5,7.5-7.5c3.3,0,6.1,1.5,7.1,4.7h-3.9
		c-0.6-1.7-1.8-2.3-3.2-2.3c-2,0-3.6,1.2-3.6,5.1s1.6,5.1,3.6,5.1c1.4,0,2.6-0.6,3.2-2.3H143.3L143.3,14.6z M181.4,10.3
		c1.2,0,2.2,0.8,2.2,3.4c0,2.6-1,3.4-2.2,3.4c-1.2,0-2.2-0.8-2.2-3.4C179.2,11,180.2,10.3,181.4,10.3L181.4,10.3z M181.4,7.9
		c3.1,0,5.7,1.8,5.7,5.7c0,3.9-2.6,5.7-5.7,5.7c-3.1,0-5.7-1.8-5.7-5.7C175.7,9.7,178.3,7.9,181.4,7.9L181.4,7.9z M171.4,17.2
		c-0.9,0.7-2,1-3.1,1c-2.7,0-5-1.6-5-5.1c0-3.5,2.2-5.1,5-5.1c1.2,0,2.4,0.3,3.2,1l0.1-0.7h3.1v9.3c0,2.8-1.8,4.5-5.4,4.5
		c-2.5,0-4.7-1.1-4.9-3.1h3.2c0.2,0.4,0.8,0.9,1.9,0.9c1.6,0,2-0.7,2-2V17.2L171.4,17.2z M169,10.4c1.2,0,2.2,0.6,2.2,2.6
		c0,2-1,2.6-2.2,2.6c-1.2,0-2.3-0.6-2.3-2.6C166.8,11,167.8,10.4,169,10.4L169,10.4z M38.1,15.9V19h-9.9V4.2h3.7v11.6H38.1
		L38.1,15.9z M45.9,17.9c-0.3,0.4-1.3,1.5-3.2,1.5c-1.9,0-3.8-1.3-3.8-3.4V8.3h3.5v7c0,0.5,0.4,1.4,1.6,1.4c1.2,0,1.7-1.1,1.7-1.7
		V8.3h3.5V19h-3.1L45.9,17.9L45.9,17.9z M159.4,9.4c0.4-0.6,1.3-1.5,3.3-1.5v2.7c-0.7-0.2-1.2-0.2-1.4-0.2c-1.3,0-1.6,1.2-1.6,1.7
		V19h-3.5V8.3h3.1L159.4,9.4L159.4,9.4z M91.4,9.4c0.3-0.4,1.3-1.5,3.2-1.5c1.9,0,3.8,1.3,3.8,3.4V19h-3.5v-7c0-0.6-0.4-1.4-1.6-1.4
		c-1.2,0-1.7,1.2-1.7,1.7V19h-3.5V8.3h3.1L91.4,9.4L91.4,9.4z M68.9,9.2C69,9,70,7.9,71.9,7.9c1.9,0,3.8,1.3,3.8,3.4V19l-3.5,0v-7
		c0-0.5-0.5-1.5-1.7-1.5c-1.2,0-1.7,1.2-1.7,1.7V19l-3.5,0V4.2h3.5V9.2L68.9,9.2z M57.6,10.7V8.3h1.5V5h3.5v3.3h1.9v2.4h-1.9v5.1
		c0,0.4,0.2,0.8,1.2,0.8h0.8V19H62c-1.8,0-2.9-1.2-2.9-2.9v-5.4H57.6L57.6,10.7z M50,8.3v2.4h1.5V19H55v-8.3h1.9V8.3H55V7.4
		c0-0.4,0.2-0.8,1.2-0.8H57V4.2h-2.6c-1.7,0-2.9,1.2-2.9,2.9v1.2H50L50,8.3z M109.5,15.9c0-3-2.8-3.1-4.8-3.6
		c-1.2-0.2-1.8-0.6-1.7-1.1c0.1-0.6,0.4-0.9,1.5-0.9c1.2,0,1.6,0.5,1.6,1.5h3.1c0-2.8-1.8-3.9-4.8-3.9c-3.6,0-4.8,1.9-4.8,3.6
		c0,0.9,0.6,1.8,1.4,2.2c0.8,0.4,2,0.7,3.1,0.9c1.1,0.3,2.1,0.5,2.1,1.2c0,0.8-0.6,1.1-1.8,1.1c-1.2,0-1.9-0.5-1.9-1.7h-3.2
		c0,3.1,2.3,4,5.2,4C107.9,19.3,109.5,17.6,109.5,15.9L109.5,15.9z M148.5,11.8h-3.1c0-2.5,1.9-3.9,4.7-3.9c3.6,0,5,1.9,5,3.6v6.1
		c0,0.2,0,1,0.3,1.3H152l-0.2-0.9c-0.7,0.7-1.4,1.2-3.3,1.3c-2.1,0.2-4.1-0.8-4.1-3.1V16c0-1,0.8-2.1,1.7-2.5c1-0.5,2.2-0.7,3.8-0.9
		c1.5-0.3,1.8-0.7,1.8-1.1c0-0.7-0.4-1-1.6-1C148.9,10.4,148.5,10.9,148.5,11.8L148.5,11.8z M151.7,14.1l-2.3,0.6
		c-0.6,0.2-1.4,0.3-1.5,1.1c-0.1,0.8,0.6,1.4,1.9,1.2c1.3-0.2,1.8-1.3,1.8-2V14.1L151.7,14.1z M114.3,11.8h-3.1
		c0-2.5,1.9-3.9,4.7-3.9c3.6,0,5,1.9,5,3.6v6.1c0,0.2,0,1,0.3,1.3h-3.3l-0.2-0.9c-0.7,0.7-1.4,1.2-3.3,1.3c-2.1,0.2-4.1-0.8-4.1-3.1
		V16c0-1,0.8-2.1,1.7-2.5c1-0.5,2.2-0.7,3.8-0.9c1.5-0.3,1.8-0.7,1.8-1.1c0-0.7-0.4-1-1.6-1C114.7,10.4,114.3,10.9,114.3,11.8
		L114.3,11.8z M117.6,14.1l-2.3,0.6c-0.6,0.2-1.4,0.3-1.5,1.1c-0.1,0.8,0.7,1.4,2,1.2c1.3-0.2,1.8-1.3,1.8-2V14.1L117.6,14.1z
		 M80.5,11.8h-3.1c0-2.5,1.9-3.9,4.7-3.9c3.6,0,5,1.9,5,3.6v6.1c0,0.2,0,1,0.3,1.3h-3.3L83.8,18c-0.7,0.7-1.4,1.2-3.3,1.3
		c-2.1,0.2-4.1-0.8-4.1-3.1V16c0-1,0.8-2.1,1.7-2.5c1.1-0.5,2.2-0.7,3.8-0.9c1.5-0.3,1.8-0.7,1.8-1.1c0-0.7-0.4-1-1.6-1
		C80.9,10.4,80.5,10.9,80.5,11.8L80.5,11.8z M83.7,14.1l-2.3,0.6c-0.6,0.2-1.4,0.3-1.4,1.1c-0.1,0.8,0.6,1.4,1.9,1.2
		c1.3-0.2,1.8-1.3,1.8-2V14.1L83.7,14.1z M11,0c6.1,0,11.1,5,11.1,11.1c0,6.1-5,11-11.1,11c-6.1,0-11-5-11-11C0,5,5,0,11,0L11,0z
		 M11,0.8c5.6,0,10.2,4.6,10.2,10.2c0,5.6-4.6,10.2-10.2,10.2c-5.6,0-10.2-4.6-10.2-10.2C0.8,5.5,5.4,0.8,11,0.8L11,0.8z M16.2,16.1
		c-4.9-0.8-9.4-4.8-14.4-6.8l0.1-0.4l1.5,0.4L3.6,9L8.4,11l0.1,0.3l-2.9-1v0.1c1.5,1,3.1,1.6,4.6,1.2c1.1-0.2,2.4-1.6,2.9-2.7
		l1.6-0.1c1.9-0.1,3.9,0.3,5.9,0.6l-0.3,0.4c-1.6-0.3-3.3-0.4-4.9-0.5l-0.2,0.3c1.6,0.1,3.2,0.2,4.8,0.5l-0.4,0.4
		c-1.6-0.2-3.2-0.4-4.8-0.3l-0.2,0.3c1.5,0,3.2,0.1,4.7,0.3l-0.3,0.4c-1.6-0.1-3.2-0.3-4.8-0.1l-0.2,0.3c1.5,0,3.2,0,4.6,0.2
		l-0.3,0.4c-1.7-0.1-3.6-0.1-5.4,0.4l-1.4,0.5l0.3,0.3c1.7,1.6,3.3,2,5,2.1l-0.4,0.8l0,0H16.2L16.2,16.1z"/>
</g>
</svg>
