<svg xmlns="http://www.w3.org/2000/svg" xmlns:xlink="http://www.w3.org/1999/xlink" viewBox="0 0 266.5 128.4"><path d="M40 27.7c8 0 14.5 6 15.6 13.7l12.2 4.1 12.1-4c-1-21.2-18.5-38-39.9-38l4 12.1-4 12.1" fill="#fecb2f"/><path d="M40 59.3c-8 0-14.5-6-15.6-13.7l-12.2-4.1-12.1 4c1 21.2 18.5 38 39.9 38l-4-12.1 4-12.1" fill="#328efb"/><path d="M80 43.6l-12.1 4-12.1-4c0 8-6 14.5-13.7 15.6L38 71.4l4 12.1c21.2-1.1 38-18.6 38-39.9" fill="#53d769"/><path d="M24.2 43.5c0-8 6-14.5 13.7-15.6L42 15.6 38 3.5C16.8 4.6 0 22.1 0 43.5l12.1-4 12.1 4" fill="#ff6224"/><path d="M68 43.5c0 .7 0 1.3-.1 1.9l12-4C78.9 20.3 61.4 3.5 40 3.5l4 12.1v.1c13.6 2 24 13.7 24 27.8" fill="#fecb2f"/><path d="M.1 45.6C1.2 66.3 18 82.9 38.8 83.5 17.9 82.9 1.1 66.3.1 45.6" fill="#b2b2b2"/><path d="M12.1 41.6l-12 4C1.2 66.3 18 82.9 38.8 83.5H40l-4-12.1v-.1c-13.6-2-24-13.6-24-27.7 0-.7 0-1.4.1-2" fill="#236cfa"/><path d="M80 43.6l-12.1 4h-.1c-2 13.6-13.6 24-27.7 24-.7 0-1.3 0-1.9-.1l4 12C63.2 82.4 80 64.9 80 43.6" fill="#3acb49"/><path d="M44 15.8l-4 11.9c8 0 14.5 6 15.6 13.7l12.2 4.1h.1c0-.6.1-1.3.1-1.9 0-14.2-10.4-25.9-24-27.8" fill="#feb61c"/><path d="M24.4 45.6l-12.2-4.1h-.1c0 .6-.1 1.3-.1 1.9 0 14.1 10.4 25.8 24 27.7l4-11.9c-8 .1-14.6-5.9-15.6-13.6z" fill="#328efb"/><path d="M67.7 47.5l-11.9-4c0 8-6 14.5-13.7 15.6L38 71.4v.1c.6 0 1.3.1 1.9.1 14.2-.1 25.9-10.5 27.8-24.1z" fill="#53d769"/><path d="M40 15.5c-14.1 0-25.8 10.4-27.7 24l11.9 4c0-8 6-14.5 13.7-15.6L42 15.6v-.1h-2" fill="#ff3b16"/><path d="M113.1 4.6c5.9 0 10.5 1.1 13.7 3.4s4.8 5.6 4.8 10.1c0 2.4-.4 4.5-1.3 6.3-.9 1.7-2.1 3.1-3.8 4.2-1.6 1.1-3.6 1.9-6 2.3-2.4.5-5 .7-8 .7h-4.7v15.7h-5.9V5.7a30.17 30.17 0 0 1 5.6-.8c2-.2 3.9-.3 5.6-.3zm.5 5.2c-2.5 0-4.5.1-5.8.2v16.6h4.5c2 0 3.9-.1 5.5-.4s3-.7 4.1-1.3 2-1.5 2.6-2.6.9-2.5.9-4.2c0-1.6-.3-3-.9-4-.6-1.1-1.5-1.9-2.6-2.5s-2.3-1.1-3.8-1.3c-1.4-.4-2.9-.5-4.5-.5zm51.6 21.7c0 2.5-.4 4.8-1.1 6.8s-1.8 3.8-3.1 5.2c-1.3 1.5-2.9 2.6-4.7 3.4s-3.8 1.2-6 1.2a14.95 14.95 0 0 1-6-1.2c-1.9-.8-3.4-1.9-4.7-3.4s-2.3-3.2-3.1-5.2c-.7-2-1.1-4.3-1.1-6.8s.4-4.7 1.1-6.8 1.8-3.8 3.1-5.3 2.9-2.6 4.7-3.4 3.8-1.2 6-1.2a14.95 14.95 0 0 1 6 1.2c1.8.8 3.4 1.9 4.7 3.4s2.3 3.2 3.1 5.3c.7 2 1.1 4.3 1.1 6.8zm-6 0c0-3.6-.8-6.4-2.4-8.5s-3.8-3.1-6.6-3.1-5 1-6.6 3.1-2.4 4.9-2.4 8.5.8 6.4 2.4 8.5 3.8 3.1 6.6 3.1 4.9-1 6.6-3.1c1.6-2.1 2.4-4.9 2.4-8.5zm21.1 11.7c2.3 0 4-.3 5.2-.9 1.1-.6 1.7-1.6 1.7-2.9 0-1.4-.5-2.5-1.6-3.3s-2.9-1.7-5.4-2.7l-3.5-1.5c-1.1-.5-2.1-1.1-2.9-1.8s-1.5-1.5-2-2.5-.7-2.2-.7-3.6c0-2.8 1-5 3.1-6.7 2.1-1.6 4.9-2.5 8.5-2.5.9 0 1.8.1 2.7.2l2.5.4 2 .5 1.4.4-1 4.9c-.6-.3-1.6-.7-2.9-1s-2.9-.5-4.7-.5c-1.6 0-3 .3-4.1.9-1.2.6-1.8 1.6-1.8 3 0 .7.1 1.3.4 1.8s.7 1 1.2 1.4 1.2.8 2 1.2 1.8.8 2.9 1.2l4 1.7c1.2.5 2.2 1.2 3 1.9s1.5 1.6 1.9 2.7c.4 1 .7 2.3.7 3.8 0 2.9-1.1 5.1-3.3 6.6s-5.3 2.3-9.3 2.3c-2.8 0-5-.2-6.6-.7l-3.2-1.1 1-4.9c.7.2 1.7.6 3.1 1.1 1.5.4 3.4.6 5.7.6zm25-27.6h12v4.8h-12V35c0 1.6.1 2.9.4 3.9.2 1 .6 1.9 1.1 2.4s1.1 1 1.8 1.3c.7.2 1.6.4 2.6.4 1.7 0 3.1-.2 4.1-.6l2.2-.8 1.1 4.7c-.6.3-1.6.6-3 1.1-1.4.4-3 .6-4.9.6-2.2 0-3.9-.3-5.3-.8s-2.5-1.4-3.4-2.5-1.5-2.4-1.8-4.1c-.3-1.6-.5-3.5-.5-5.6V6.8l5.7-1v9.8zm29.3-.8c2.3 0 4.2.3 5.8.9s2.8 1.4 3.8 2.5 1.6 2.4 2 3.8c.4 1.5.6 3.1.6 4.9v19.8l-2 .3-3 .4-3.6.3-3.8.2c-1.8 0-3.4-.2-4.9-.5-1.5-.4-2.8-.9-3.9-1.7s-2-1.8-2.6-3.1-.9-2.9-.9-4.7c0-1.7.4-3.3 1.1-4.5.7-1.3 1.7-2.3 2.9-3s2.6-1.3 4.3-1.7c1.6-.4 3.3-.5 5.1-.5.6 0 1.2 0 1.8.1l1.7.2 1.4.3c.4.1.7.1.9.2v-1.6a13.33 13.33 0 0 0-.3-2.8c-.2-.9-.6-1.7-1.1-2.4s-1.3-1.3-2.2-1.7-2.1-.6-3.6-.6c-1.9 0-3.5.1-4.9.4s-2.5.5-3.1.8l-.7-4.7c.7-.3 2-.6 3.7-.9 1.6-.5 3.5-.7 5.5-.7zm.5 28.4l3.6-.1 2.6-.3v-9.5c-.4-.2-1.1-.4-2-.5l-3.3-.2c-.9 0-1.8.1-2.7.2-1 .1-1.8.4-2.6.8s-1.5.9-2 1.6-.8 1.6-.8 2.7c0 2 .7 3.4 2 4.2 1.2.7 2.9 1.1 5.2 1.1zm30.4 4.7c-3.5-.1-6-.8-7.4-2.3-1.5-1.4-2.2-3.6-2.2-6.6V1l5.7-1v38.1c0 .9.1 1.7.2 2.3.2.6.4 1.1.8 1.5s.9.6 1.5.8 1.4.3 2.3.5l-.9 4.7zM101.9 80.3V56.8h13.6v2h-11.3V67h10.1v2h-10.1v9.4h12.2v2h-14.5zM140 56.8h2.6l-7.7 11.4 4.4 6.1c1.4 2 2.7 4.1 3.7 6.1h-2.5l-1.3-2.3-1.7-2.6-1.9-2.8-1.9-2.6-1.9 2.6-2 2.8-1.7 2.6-1.3 2.3h-2.4l3.7-6.1 4.4-6.1-7.7-11.5h2.7l6.4 9.5 6.1-9.4zm18.6-.2c3.3 0 5.8.6 7.4 1.9s2.4 3.1 2.4 5.4c0 1.3-.2 2.5-.7 3.4s-1.2 1.7-2 2.3c-.9.6-2 1-3.2 1.3-1.3.3-2.7.4-4.3.4H155v9.1h-2.3V57.2c.8-.2 1.8-.4 2.9-.5 1-.1 2.1-.1 3-.1zm.1 2l-2.2.1-1.5.2v10.4h2.9c1.2 0 2.4-.1 3.4-.2s1.9-.4 2.6-.8 1.3-.9 1.6-1.6c.4-.7.6-1.6.6-2.7 0-1-.2-1.9-.6-2.6s-1-1.2-1.7-1.6-1.5-.7-2.4-.8c-.8-.3-1.7-.4-2.7-.4zm35.4 5.3c0 1.8-.5 3.2-1.4 4.2s-2.2 1.8-3.7 2.2l1.4 1.8c.6.7 1.2 1.6 1.8 2.5l1.8 2.9a26.96 26.96 0 0 1 1.5 2.9H193l-1.5-2.7-1.7-2.6-1.7-2.4-1.4-1.9c-.7.1-1.5.1-2.2.1h-3.8v9.5h-2.3V57.2c.8-.2 1.8-.4 2.9-.5l3-.2c3.2 0 5.7.6 7.3 1.8 1.7 1.3 2.5 3.1 2.5 5.6zm-9.5-5.3l-2.3.1-1.6.2v10h3.2c1.1 0 2.1-.1 3-.2 1-.1 1.8-.3 2.5-.7s1.3-.9 1.7-1.5.6-1.6.6-2.7c0-1-.2-1.9-.6-2.6a4.1 4.1 0 0 0-1.6-1.6c-.7-.4-1.4-.7-2.3-.8l-2.6-.2zM205 80.3V56.8h13.6v2h-11.3V67h10.1v2h-10.1v9.4h12.2v2H205zm29.6-1.5c1.8 0 3.3-.3 4.3-1s1.5-1.8 1.5-3.3c0-.9-.2-1.6-.5-2.2s-.8-1.1-1.3-1.5-1.2-.7-1.9-1l-2.2-.9c-1-.4-1.8-.8-2.6-1.2s-1.4-.9-2-1.4c-.5-.5-1-1.1-1.2-1.8-.3-.7-.4-1.4-.4-2.3 0-2 .7-3.5 2-4.6 1.3-1 3.2-1.6 5.6-1.6.6 0 1.3 0 1.9.1s1.2.2 1.7.4 1 .3 1.5.5l1.1.6-.8 1.9c-.7-.5-1.5-.8-2.4-1.1s-2-.4-3-.4c-.7 0-1.4.1-2.1.2-.6.1-1.2.4-1.6.7-.5.3-.8.7-1.1 1.2s-.4 1.1-.4 1.8.1 1.3.4 1.8.7.9 1.1 1.3c.5.4 1.1.7 1.7 1l2.1.9 2.6 1.2c.8.4 1.5.8 2.2 1.4.6.5 1.1 1.2 1.5 1.9s.5 1.7.5 2.8c0 2.1-.7 3.7-2.2 4.8s-3.5 1.6-6 1.6c-.9 0-1.7-.1-2.5-.2s-1.4-.3-2-.4c-.6-.2-1.1-.3-1.5-.5s-.7-.3-1-.5l.7-2 .9.5c.4.2.8.4 1.4.5s1.1.3 1.8.4c.7.4 1.4.4 2.2.4zm23.2 0c1.8 0 3.3-.3 4.3-1s1.5-1.8 1.5-3.3c0-.9-.2-1.6-.5-2.2s-.8-1.1-1.3-1.5-1.2-.7-1.9-1l-2.2-.9c-1-.4-1.8-.8-2.6-1.2s-1.4-.9-2-1.4c-.5-.5-1-1.1-1.2-1.8-.3-.7-.4-1.4-.4-2.3 0-2 .7-3.5 2-4.6 1.3-1 3.2-1.6 5.6-1.6.6 0 1.3 0 1.9.1s1.2.2 1.7.4 1 .3 1.5.5l1.1.6-.8 1.9c-.7-.5-1.5-.8-2.4-1.1s-2-.4-3-.4c-.7 0-1.4.1-2.1.2-.6.1-1.2.4-1.6.7-.5.3-.8.7-1.1 1.2s-.4 1.1-.4 1.8.1 1.3.4 1.8.7.9 1.1 1.3c.5.4 1.1.7 1.7 1l2.1.9 2.6 1.2c.8.4 1.5.8 2.2 1.4.6.5 1.1 1.2 1.5 1.9s.5 1.7.5 2.8c0 2.1-.7 3.7-2.2 4.8s-3.5 1.6-6 1.6c-.9 0-1.7-.1-2.5-.2-.7-.1-1.4-.3-2-.4-.6-.2-1.1-.3-1.5-.5s-.7-.3-1-.5l.7-2 .9.5c.4.2.8.4 1.4.5s1.1.3 1.8.4c.6.4 1.4.4 2.2.4z" fill="#273266"/><path d="M.5 101.3h265.9v.8H.5z" fill="#b3bcc5"/><g fill="#80909f"><path d="M13.7 118.2c.8.7 1.1 1.6 1.1 2.8s-.4 2.2-1.1 2.9c-.8.7-1.8 1-3.2 1H7.8v3.5H6.3v-11.1h4.3c1.3-.1 2.4.2 3.1.9zm-1 4.6c.5-.4.8-1 .8-1.8s-.3-1.4-.8-1.8-1.2-.6-2.2-.6H7.8v4.9h2.7c.9-.1 1.7-.3 2.2-.7z"/><use xlink:href="#B"/><path d="M33.1 117.2h1.5v11.1h-1.5v-11.1zm14.9.6c.9.5 1.6 1.2 2.1 2 .5.9.8 1.8.8 2.8s-.3 2-.8 2.9-1.2 1.6-2.1 2.1-1.9.8-2.9.8-2-.3-2.9-.8-1.6-1.2-2.1-2.1-.8-1.8-.8-2.9.3-2 .8-2.8c.5-.9 1.2-1.5 2.1-2s1.9-.7 2.9-.7 2 .2 2.9.7zm-5.1 1.2a4.63 4.63 0 0 0-1.6 1.5c-.4.6-.6 1.4-.6 2.1a4.56 4.56 0 0 0 .6 2.2 4.1 4.1 0 0 0 1.6 1.6c.7.4 1.4.6 2.1.6.8 0 1.5-.2 2.1-.6s1.2-.9 1.6-1.6.6-1.4.6-2.2-.2-1.5-.6-2.1-.9-1.2-1.6-1.5c-.6-.4-1.4-.6-2.1-.6-.7.1-1.5.2-2.1.6zm19.7 9.3l-2.2-3.5H57v3.5h-1.5v-11.1h4.3c1.4 0 2.5.3 3.3 1 .8.6 1.1 1.6 1.1 2.8 0 .9-.2 1.7-.6 2.3s-1 1.1-1.8 1.3l2.6 3.8h-1.8zm-2.8-4.9c1 0 1.7-.2 2.2-.6s.8-1 .8-1.8-.3-1.4-.8-1.8-1.2-.6-2.2-.6H57v4.9h2.8zm9.4-6.2h1.5v11.1h-1.5v-11.1zm5.7 0h8.7v1.4H80v9.7h-1.5v-9.7h-3.6v-1.4zm21.1 0l-4.2 7.3v3.8h-1.5v-3.7l-4.2-7.4h1.6l3.4 5.7 3.4-5.7H96zm10.6 0h1.5v11.1h-1.5v-11.1zm14.9 0h1.5v11.1h-1.5l-6.3-8.6v8.6h-1.5v-11.1h1.5l6.4 8.6v-8.6zm5.7 0h8.7v1.4h-3.6v9.7h-1.5v-9.7h-3.6v-1.4zm12.8 0h7.7v1.4h-6.2v3.4h5.5v1.4h-5.5v3.5h6.4v1.4H140v-11.1z"/><use xlink:href="#B" x="133.4"/><path d="M174.4 117.2h1.5v11.1h-1.5l-6.3-8.6v8.6h-1.5v-11.1h1.5l6.4 8.6v-8.6zm15.3 11.1l-1.2-2.7h-5.8l-1.2 2.7h-1.6l4.9-11.1h1.6l4.9 11.1h-1.6zm-6.4-4.1h4.7l-2.3-5.4-2.4 5.4zm9.6-7h8.7v1.4H198v9.7h-1.5v-9.7h-3.6v-1.4zm12.8 0h1.5v11.1h-1.5v-11.1zm14.8.6c.9.5 1.6 1.2 2.1 2 .5.9.8 1.8.8 2.8s-.3 2-.8 2.9-1.2 1.6-2.1 2.1-1.9.8-2.9.8-2-.3-2.9-.8-1.6-1.2-2.1-2.1-.8-1.8-.8-2.9.3-2 .8-2.8c.5-.9 1.2-1.5 2.1-2s1.9-.7 2.9-.7 2 .2 2.9.7zm-5.1 1.2a4.63 4.63 0 0 0-1.6 1.5c-.4.6-.6 1.4-.6 2.1a4.56 4.56 0 0 0 .6 2.2 4.1 4.1 0 0 0 1.6 1.6c.7.4 1.4.6 2.1.6.8 0 1.5-.2 2.1-.6s1.2-.9 1.6-1.6.6-1.4.6-2.2-.2-1.5-.6-2.1-.9-1.2-1.6-1.5c-.6-.4-1.4-.6-2.1-.6-.7.1-1.4.2-2.1.6zm20.5-1.8h1.5v11.1h-1.5l-6.3-8.6v8.6H228v-11.1h1.5l6.4 8.6v-8.6zm15.3 11.1l-1.2-2.7h-5.8l-1.2 2.7h-1.6l4.9-11.1h1.6l4.9 11.1h-1.6zm-6.5-4.1h4.7l-2.3-5.4-2.4 5.4zm12.1-7h1.5v9.7h4.8v1.4h-6.4v-11.1z"/></g><defs ><path id="B" d="M26.4 128.3l-2.2-3.5h-3.4v3.5h-1.5v-11.1h4.3c1.4 0 2.5.3 3.3 1 .8.6 1.1 1.6 1.1 2.8 0 .9-.2 1.7-.6 2.3s-1 1.1-1.8 1.3l2.6 3.8h-1.8zm-2.8-4.9c1 0 1.7-.2 2.2-.6s.8-1 .8-1.8-.3-1.4-.8-1.8-1.2-.6-2.2-.6h-2.8v4.9h2.8z"/></defs></svg>