<?xml version="1.0" encoding="utf-8"?>
<!-- Generator: Adobe Illustrator 23.0.1, SVG Export Plug-In . SVG Version: 6.00 Build 0)  -->
<svg version="1.1" id="Layer_1" xmlns="http://www.w3.org/2000/svg" xmlns:xlink="http://www.w3.org/1999/xlink" x="0px" y="0px"
	 viewBox="0 0 266.5 128.4" style="enable-background:new 0 0 266.5 128.4;" xml:space="preserve">
<style type="text/css">
	.st0{fill:#FECB2F;}
	.st1{fill:#328EFB;}
	.st2{fill:#53D769;}
	.st3{fill:#FF6224;}
	.st4{fill:#B2B2B2;}
	.st5{fill:#236CFA;}
	.st6{fill:#3ACB49;}
	.st7{fill:#999999;}
	.st8{fill:#FEB61C;}
	.st9{fill:#FF3B16;}
	.st10{fill:#273266;}
	.st11{fill:#B3BCC5;}
	.st12{fill:#80909F;}
</style>
<g>
	<g>
		<path class="st0" d="M40,27.7c8,0,14.5,6,15.6,13.7l12.2,4.1l12.1-4C78.9,20.3,61.4,3.5,40,3.5l4,12.1L40,27.7"/>
		<path class="st1" d="M40,59.3c-8,0-14.5-6-15.6-13.7l-12.2-4.1l-12.1,4C1.1,66.7,18.6,83.5,40,83.5l-4-12.1L40,59.3"/>
		<path class="st2" d="M80,43.6l-12.1,4l-12.1-4c0,8-6,14.5-13.7,15.6L38,71.4l4,12.1C63.2,82.4,80,64.9,80,43.6"/>
		<path class="st3" d="M24.2,43.5c0-8,6-14.5,13.7-15.6L42,15.6l-4-12.1C16.8,4.6,0,22.1,0,43.5l12.1-4L24.2,43.5"/>
		<path class="st0" d="M68,43.5c0,0.7,0,1.3-0.1,1.9l12-4C78.9,20.3,61.4,3.5,40,3.5l4,12.1l0,0.1C57.6,17.7,68,29.4,68,43.5"/>
		<path class="st4" d="M0.1,45.6c1.1,20.7,17.9,37.3,38.7,37.9C17.9,82.9,1.1,66.3,0.1,45.6"/>
		<path class="st5" d="M12.1,41.6l-12,4l0,0c1.1,20.7,17.9,37.3,38.7,37.9c0.4,0,0.8,0,1.2,0l-4-12.1l0-0.1c-13.6-2-24-13.6-24-27.7
			C12,42.9,12,42.2,12.1,41.6"/>
		<path class="st6" d="M80,43.6l-12.1,4l-0.1,0c-2,13.6-13.6,24-27.7,24c-0.7,0-1.3,0-1.9-0.1l4,12C63.2,82.4,80,64.9,80,43.6"/>
		<polyline class="st7" points="67.9,45.5 67.9,45.5 67.9,45.5 67.9,45.5 		"/>
		<path class="st8" d="M44,15.8l-4,11.9c8,0,14.5,6,15.6,13.7l12.2,4.1l0.1,0c0-0.6,0.1-1.3,0.1-1.9C68,29.4,57.6,17.7,44,15.8
			L44,15.8L44,15.8"/>
		<path class="st1" d="M24.4,45.6l-12.2-4.1l-0.1,0c0,0.6-0.1,1.3-0.1,1.9c0,14.1,10.4,25.8,24,27.7l4-11.9
			C32,59.3,25.4,53.3,24.4,45.6z"/>
		<path class="st2" d="M67.7,47.5l-11.9-4c0,8-6,14.5-13.7,15.6L38,71.4l0,0.1c0.6,0,1.3,0.1,1.9,0.1C54.1,71.5,65.8,61.1,67.7,47.5
			z"/>
		<path class="st9" d="M40,15.5c-14.1,0-25.8,10.4-27.7,24l11.9,4c0-8,6-14.5,13.7-15.6L42,15.6l0-0.1C41.3,15.5,40.7,15.5,40,15.5"
			/>
	</g>
	<g>
		<path class="st10" d="M113.1,4.6c5.9,0,10.5,1.1,13.7,3.4c3.2,2.3,4.8,5.6,4.8,10.1c0,2.4-0.4,4.5-1.3,6.3
			c-0.9,1.7-2.1,3.1-3.8,4.2c-1.6,1.1-3.6,1.9-6,2.3c-2.4,0.5-5,0.7-8,0.7h-4.7v15.7h-5.9V5.7c1.7-0.4,3.5-0.7,5.6-0.8
			C109.5,4.7,111.4,4.6,113.1,4.6z M113.6,9.8c-2.5,0-4.5,0.1-5.8,0.2v16.6h4.5c2,0,3.9-0.1,5.5-0.4c1.6-0.3,3-0.7,4.1-1.3
			c1.1-0.6,2-1.5,2.6-2.6c0.6-1.1,0.9-2.5,0.9-4.2c0-1.6-0.3-3-0.9-4c-0.6-1.1-1.5-1.9-2.6-2.5c-1.1-0.6-2.3-1.1-3.8-1.3
			C116.7,9.9,115.2,9.8,113.6,9.8z"/>
		<path class="st10" d="M165.2,31.5c0,2.5-0.4,4.8-1.1,6.8c-0.7,2-1.8,3.8-3.1,5.2c-1.3,1.5-2.9,2.6-4.7,3.4c-1.8,0.8-3.8,1.2-6,1.2
			c-2.2,0-4.1-0.4-6-1.2s-3.4-1.9-4.7-3.4s-2.3-3.2-3.1-5.2c-0.7-2-1.1-4.3-1.1-6.8c0-2.5,0.4-4.7,1.1-6.8c0.7-2.1,1.8-3.8,3.1-5.3
			s2.9-2.6,4.7-3.4s3.8-1.2,6-1.2c2.2,0,4.1,0.4,6,1.2c1.8,0.8,3.4,1.9,4.7,3.4c1.3,1.5,2.3,3.2,3.1,5.3
			C164.8,26.7,165.2,29,165.2,31.5z M159.2,31.5c0-3.6-0.8-6.4-2.4-8.5c-1.6-2.1-3.8-3.1-6.6-3.1c-2.8,0-5,1-6.6,3.1
			c-1.6,2.1-2.4,4.9-2.4,8.5c0,3.6,0.8,6.4,2.4,8.5c1.6,2.1,3.8,3.1,6.6,3.1c2.8,0,4.9-1,6.6-3.1C158.4,37.9,159.2,35.1,159.2,31.5z
			"/>
		<path class="st10" d="M180.3,43.2c2.3,0,4-0.3,5.2-0.9c1.1-0.6,1.7-1.6,1.7-2.9c0-1.4-0.5-2.5-1.6-3.3c-1.1-0.8-2.9-1.7-5.4-2.7
			c-1.2-0.5-2.4-1-3.5-1.5c-1.1-0.5-2.1-1.1-2.9-1.8c-0.8-0.7-1.5-1.5-2-2.5c-0.5-1-0.7-2.2-0.7-3.6c0-2.8,1-5,3.1-6.7
			c2.1-1.6,4.9-2.5,8.5-2.5c0.9,0,1.8,0.1,2.7,0.2c0.9,0.1,1.7,0.2,2.5,0.4s1.5,0.3,2,0.5c0.6,0.2,1,0.3,1.4,0.4l-1,4.9
			c-0.6-0.3-1.6-0.7-2.9-1c-1.3-0.3-2.9-0.5-4.7-0.5c-1.6,0-3,0.3-4.1,0.9c-1.2,0.6-1.8,1.6-1.8,3c0,0.7,0.1,1.3,0.4,1.8
			c0.3,0.5,0.7,1,1.2,1.4s1.2,0.8,2,1.2c0.8,0.4,1.8,0.8,2.9,1.2c1.5,0.6,2.8,1.1,4,1.7c1.2,0.5,2.2,1.2,3,1.9
			c0.8,0.7,1.5,1.6,1.9,2.7c0.4,1,0.7,2.3,0.7,3.8c0,2.9-1.1,5.1-3.3,6.6c-2.2,1.5-5.3,2.3-9.3,2.3c-2.8,0-5-0.2-6.6-0.7
			c-1.6-0.5-2.7-0.8-3.2-1.1l1-4.9c0.7,0.2,1.7,0.6,3.1,1.1C176.1,43,178,43.2,180.3,43.2z"/>
		<path class="st10" d="M205.3,15.6h12v4.8h-12V35c0,1.6,0.1,2.9,0.4,3.9c0.2,1,0.6,1.9,1.1,2.4s1.1,1,1.8,1.3
			c0.7,0.2,1.6,0.4,2.6,0.4c1.7,0,3.1-0.2,4.1-0.6c1-0.4,1.8-0.7,2.2-0.8l1.1,4.7c-0.6,0.3-1.6,0.6-3,1.1c-1.4,0.4-3,0.6-4.9,0.6
			c-2.2,0-3.9-0.3-5.3-0.8c-1.4-0.5-2.5-1.4-3.4-2.5c-0.9-1.1-1.5-2.4-1.8-4.1c-0.3-1.6-0.5-3.5-0.5-5.6V6.8l5.7-1V15.6z"/>
		<path class="st10" d="M234.6,14.8c2.3,0,4.2,0.3,5.8,0.9s2.8,1.4,3.8,2.5c1,1.1,1.6,2.4,2,3.8c0.4,1.5,0.6,3.1,0.6,4.9v19.8
			c-0.5,0.1-1.2,0.2-2,0.3c-0.9,0.1-1.9,0.3-3,0.4s-2.3,0.2-3.6,0.3c-1.3,0.1-2.6,0.2-3.8,0.2c-1.8,0-3.4-0.2-4.9-0.5
			c-1.5-0.4-2.8-0.9-3.9-1.7c-1.1-0.8-2-1.8-2.6-3.1c-0.6-1.3-0.9-2.9-0.9-4.7c0-1.7,0.4-3.3,1.1-4.5c0.7-1.3,1.7-2.3,2.9-3
			s2.6-1.3,4.3-1.7c1.6-0.4,3.3-0.5,5.1-0.5c0.6,0,1.2,0,1.8,0.1c0.6,0.1,1.2,0.1,1.7,0.2c0.5,0.1,1,0.2,1.4,0.3
			c0.4,0.1,0.7,0.1,0.9,0.2v-1.6c0-0.9-0.1-1.9-0.3-2.8c-0.2-0.9-0.6-1.7-1.1-2.4c-0.5-0.7-1.3-1.3-2.2-1.7s-2.1-0.6-3.6-0.6
			c-1.9,0-3.5,0.1-4.9,0.4c-1.4,0.3-2.5,0.5-3.1,0.8l-0.7-4.7c0.7-0.3,2-0.6,3.7-0.9C230.7,15,232.6,14.8,234.6,14.8z M235.1,43.2
			c1.3,0,2.5,0,3.6-0.1c1-0.1,1.9-0.2,2.6-0.3v-9.5c-0.4-0.2-1.1-0.4-2-0.5s-2-0.2-3.3-0.2c-0.9,0-1.8,0.1-2.7,0.2
			c-1,0.1-1.8,0.4-2.6,0.8c-0.8,0.4-1.5,0.9-2,1.6s-0.8,1.6-0.8,2.7c0,2,0.7,3.4,2,4.2C231.1,42.8,232.8,43.2,235.1,43.2z"/>
		<path class="st10" d="M265.5,47.9c-3.5-0.1-6-0.8-7.4-2.3c-1.5-1.4-2.2-3.6-2.2-6.6V1l5.7-1v38.1c0,0.9,0.1,1.7,0.2,2.3
			c0.2,0.6,0.4,1.1,0.8,1.5c0.4,0.4,0.9,0.6,1.5,0.8c0.6,0.2,1.4,0.3,2.3,0.5L265.5,47.9z"/>
	</g>
	<g>
		<path class="st10" d="M101.9,80.3V56.8h13.6v2h-11.3V67h10.1v2h-10.1v9.4h12.2v2H101.9z"/>
		<path class="st10" d="M140,56.8h2.6l-7.7,11.4c1.5,2,3,4.1,4.4,6.1c1.4,2,2.7,4.1,3.7,6.1h-2.5c-0.4-0.7-0.8-1.4-1.3-2.3
			c-0.5-0.8-1.1-1.7-1.7-2.6s-1.3-1.8-1.9-2.8c-0.7-0.9-1.3-1.8-1.9-2.6c-0.6,0.8-1.3,1.7-1.9,2.6c-0.7,0.9-1.3,1.8-2,2.8
			s-1.2,1.8-1.7,2.6c-0.5,0.8-1,1.6-1.3,2.3h-2.4c1.1-2,2.3-4,3.7-6.1c1.4-2,2.9-4,4.4-6.1l-7.7-11.5h2.7l6.4,9.5L140,56.8z"/>
		<path class="st10" d="M158.6,56.6c3.3,0,5.8,0.6,7.4,1.9c1.6,1.3,2.4,3.1,2.4,5.4c0,1.3-0.2,2.5-0.7,3.4c-0.5,0.9-1.2,1.7-2,2.3
			c-0.9,0.6-2,1-3.2,1.3c-1.3,0.3-2.7,0.4-4.3,0.4H155v9.1h-2.3V57.2c0.8-0.2,1.8-0.4,2.9-0.5C156.6,56.6,157.7,56.6,158.6,56.6z
			 M158.7,58.6c-0.9,0-1.6,0-2.2,0.1s-1.1,0.1-1.5,0.2v10.4h2.9c1.2,0,2.4-0.1,3.4-0.2s1.9-0.4,2.6-0.8c0.7-0.4,1.3-0.9,1.6-1.6
			c0.4-0.7,0.6-1.6,0.6-2.7c0-1-0.2-1.9-0.6-2.6c-0.4-0.7-1-1.2-1.7-1.6c-0.7-0.4-1.5-0.7-2.4-0.8C160.6,58.7,159.7,58.6,158.7,58.6
			z"/>
		<path class="st10" d="M194.1,63.9c0,1.8-0.5,3.2-1.4,4.2c-0.9,1-2.2,1.8-3.7,2.2c0.4,0.5,0.8,1.1,1.4,1.8s1.2,1.6,1.8,2.5
			c0.6,0.9,1.2,1.9,1.8,2.9c0.6,1,1.1,2,1.5,2.9h-2.5c-0.5-0.9-1-1.8-1.5-2.7c-0.6-0.9-1.1-1.8-1.7-2.6c-0.6-0.8-1.1-1.6-1.7-2.4
			s-1-1.4-1.4-1.9c-0.7,0.1-1.5,0.1-2.2,0.1h-3.8v9.5h-2.3V57.2c0.8-0.2,1.8-0.4,2.9-0.5c1.1-0.1,2.1-0.2,3-0.2
			c3.2,0,5.7,0.6,7.3,1.8C193.3,59.6,194.1,61.4,194.1,63.9z M184.6,58.6c-0.9,0-1.6,0-2.3,0.1c-0.6,0.1-1.2,0.1-1.6,0.2v10h3.2
			c1.1,0,2.1-0.1,3-0.2c1-0.1,1.8-0.3,2.5-0.7c0.7-0.4,1.3-0.9,1.7-1.5s0.6-1.6,0.6-2.7c0-1-0.2-1.9-0.6-2.6
			c-0.4-0.7-0.9-1.2-1.6-1.6s-1.4-0.7-2.3-0.8C186.4,58.7,185.5,58.6,184.6,58.6z"/>
		<path class="st10" d="M205,80.3V56.8h13.6v2h-11.3V67h10.1v2h-10.1v9.4h12.2v2H205z"/>
		<path class="st10" d="M234.6,78.8c1.8,0,3.3-0.3,4.3-1c1-0.7,1.5-1.8,1.5-3.3c0-0.9-0.2-1.6-0.5-2.2c-0.3-0.6-0.8-1.1-1.3-1.5
			s-1.2-0.7-1.9-1c-0.7-0.3-1.4-0.6-2.2-0.9c-1-0.4-1.8-0.8-2.6-1.2c-0.8-0.4-1.4-0.9-2-1.4c-0.5-0.5-1-1.1-1.2-1.8
			c-0.3-0.7-0.4-1.4-0.4-2.3c0-2,0.7-3.5,2-4.6c1.3-1,3.2-1.6,5.6-1.6c0.6,0,1.3,0,1.9,0.1s1.2,0.2,1.7,0.4s1,0.3,1.5,0.5
			c0.4,0.2,0.8,0.4,1.1,0.6l-0.8,1.9c-0.7-0.5-1.5-0.8-2.4-1.1c-0.9-0.3-2-0.4-3-0.4c-0.7,0-1.4,0.1-2.1,0.2
			c-0.6,0.1-1.2,0.4-1.6,0.7c-0.5,0.3-0.8,0.7-1.1,1.2c-0.3,0.5-0.4,1.1-0.4,1.8c0,0.7,0.1,1.3,0.4,1.8c0.3,0.5,0.7,0.9,1.1,1.3
			c0.5,0.4,1.1,0.7,1.7,1c0.7,0.3,1.4,0.6,2.1,0.9c0.9,0.4,1.8,0.8,2.6,1.2c0.8,0.4,1.5,0.8,2.2,1.4c0.6,0.5,1.1,1.2,1.5,1.9
			s0.5,1.7,0.5,2.8c0,2.1-0.7,3.7-2.2,4.8s-3.5,1.6-6,1.6c-0.9,0-1.7-0.1-2.5-0.2s-1.4-0.3-2-0.4c-0.6-0.2-1.1-0.3-1.5-0.5
			c-0.4-0.2-0.7-0.3-1-0.5l0.7-2c0.2,0.1,0.5,0.3,0.9,0.5c0.4,0.2,0.8,0.4,1.4,0.5s1.1,0.3,1.8,0.4
			C233.1,78.8,233.8,78.8,234.6,78.8z"/>
		<path class="st10" d="M257.8,78.8c1.8,0,3.3-0.3,4.3-1c1-0.7,1.5-1.8,1.5-3.3c0-0.9-0.2-1.6-0.5-2.2c-0.3-0.6-0.8-1.1-1.3-1.5
			s-1.2-0.7-1.9-1c-0.7-0.3-1.4-0.6-2.2-0.9c-1-0.4-1.8-0.8-2.6-1.2c-0.8-0.4-1.4-0.9-2-1.4c-0.5-0.5-1-1.1-1.2-1.8
			c-0.3-0.7-0.4-1.4-0.4-2.3c0-2,0.7-3.5,2-4.6c1.3-1,3.2-1.6,5.6-1.6c0.6,0,1.3,0,1.9,0.1s1.2,0.2,1.7,0.4s1,0.3,1.5,0.5
			c0.4,0.2,0.8,0.4,1.1,0.6l-0.8,1.9c-0.7-0.5-1.5-0.8-2.4-1.1c-0.9-0.3-2-0.4-3-0.4c-0.7,0-1.4,0.1-2.1,0.2
			c-0.6,0.1-1.2,0.4-1.6,0.7c-0.5,0.3-0.8,0.7-1.1,1.2c-0.3,0.5-0.4,1.1-0.4,1.8c0,0.7,0.1,1.3,0.4,1.8c0.3,0.5,0.7,0.9,1.1,1.3
			c0.5,0.4,1.1,0.7,1.7,1c0.7,0.3,1.4,0.6,2.1,0.9c0.9,0.4,1.8,0.8,2.6,1.2c0.8,0.4,1.5,0.8,2.2,1.4c0.6,0.5,1.1,1.2,1.5,1.9
			s0.5,1.7,0.5,2.8c0,2.1-0.7,3.7-2.2,4.8s-3.5,1.6-6,1.6c-0.9,0-1.7-0.1-2.5-0.2c-0.7-0.1-1.4-0.3-2-0.4c-0.6-0.2-1.1-0.3-1.5-0.5
			c-0.4-0.2-0.7-0.3-1-0.5l0.7-2c0.2,0.1,0.5,0.3,0.9,0.5c0.4,0.2,0.8,0.4,1.4,0.5s1.1,0.3,1.8,0.4C256.2,78.8,257,78.8,257.8,78.8z
			"/>
	</g>
	<rect x="0.5" y="101.3" class="st11" width="265.9" height="0.8"/>
	<g>
		<path class="st12" d="M13.7,118.2c0.8,0.7,1.1,1.6,1.1,2.8c0,1.2-0.4,2.2-1.1,2.9c-0.8,0.7-1.8,1-3.2,1H7.8v3.5H6.3v-11.1h4.3
			C11.9,117.2,13,117.5,13.7,118.2z M12.7,122.8c0.5-0.4,0.8-1,0.8-1.8c0-0.8-0.3-1.4-0.8-1.8c-0.5-0.4-1.2-0.6-2.2-0.6l-2.7,0v4.9
			h2.7C11.4,123.4,12.2,123.2,12.7,122.8z"/>
		<path class="st12" d="M26.4,128.3l-2.2-3.5c-0.3,0-0.5,0-0.6,0h-2.8v3.5h-1.5v-11.1h4.3c1.4,0,2.5,0.3,3.3,1
			c0.8,0.6,1.1,1.6,1.1,2.8c0,0.9-0.2,1.7-0.6,2.3c-0.4,0.6-1,1.1-1.8,1.3l2.6,3.8H26.4z M23.6,123.4c1,0,1.7-0.2,2.2-0.6
			c0.5-0.4,0.8-1,0.8-1.8c0-0.8-0.3-1.4-0.8-1.8c-0.5-0.4-1.2-0.6-2.2-0.6h-2.8v4.9H23.6z"/>
		<path class="st12" d="M33.1,117.2h1.5v11.1h-1.5V117.2z"/>
		<path class="st12" d="M48,117.8c0.9,0.5,1.6,1.2,2.1,2c0.5,0.9,0.8,1.8,0.8,2.8s-0.3,2-0.8,2.9s-1.2,1.6-2.1,2.1
			c-0.9,0.5-1.9,0.8-2.9,0.8s-2-0.3-2.9-0.8c-0.9-0.5-1.6-1.2-2.1-2.1s-0.8-1.8-0.8-2.9s0.3-2,0.8-2.8c0.5-0.9,1.2-1.5,2.1-2
			c0.9-0.5,1.9-0.7,2.9-0.7C46.1,117.1,47.1,117.3,48,117.8z M42.9,119c-0.7,0.4-1.2,0.9-1.6,1.5c-0.4,0.6-0.6,1.4-0.6,2.1
			s0.2,1.5,0.6,2.2c0.4,0.7,0.9,1.2,1.6,1.6c0.7,0.4,1.4,0.6,2.1,0.6c0.8,0,1.5-0.2,2.1-0.6c0.6-0.4,1.2-0.9,1.6-1.6
			c0.4-0.7,0.6-1.4,0.6-2.2s-0.2-1.5-0.6-2.1c-0.4-0.6-0.9-1.2-1.6-1.5c-0.6-0.4-1.4-0.6-2.1-0.6C44.3,118.5,43.5,118.6,42.9,119z"
			/>
		<path class="st12" d="M62.6,128.3l-2.2-3.5c-0.3,0-0.5,0-0.6,0h-2.8v3.5h-1.5v-11.1h4.3c1.4,0,2.5,0.3,3.3,1
			c0.8,0.6,1.1,1.6,1.1,2.8c0,0.9-0.2,1.7-0.6,2.3c-0.4,0.6-1,1.1-1.8,1.3l2.6,3.8H62.6z M59.8,123.4c1,0,1.7-0.2,2.2-0.6
			c0.5-0.4,0.8-1,0.8-1.8c0-0.8-0.3-1.4-0.8-1.8c-0.5-0.4-1.2-0.6-2.2-0.6h-2.8v4.9H59.8z"/>
		<path class="st12" d="M69.2,117.2h1.5v11.1h-1.5V117.2z"/>
		<path class="st12" d="M74.9,117.2h8.7v1.4H80v9.7h-1.5v-9.7h-3.6V117.2z"/>
		<path class="st12" d="M96,117.2l-4.2,7.3v3.8h-1.5v-3.7l-4.2-7.4h1.6l3.4,5.7l3.4-5.7H96z"/>
		<path class="st12" d="M106.6,117.2h1.5v11.1h-1.5V117.2z"/>
		<path class="st12" d="M121.5,117.2h1.5v11.1h-1.5l-6.3-8.6v8.6h-1.5v-11.1h1.5l6.4,8.6V117.2z"/>
		<path class="st12" d="M127.2,117.2h8.7v1.4h-3.6v9.7h-1.5v-9.7h-3.6V117.2z"/>
		<path class="st12" d="M140,117.2h7.7v1.4h-6.2v3.4h5.5v1.4h-5.5v3.5h6.4v1.4H140V117.2z"/>
		<path class="st12" d="M159.8,128.3l-2.2-3.5c-0.3,0-0.5,0-0.6,0h-2.8v3.5h-1.5v-11.1h4.3c1.4,0,2.5,0.3,3.3,1
			c0.8,0.6,1.1,1.6,1.1,2.8c0,0.9-0.2,1.7-0.6,2.3c-0.4,0.6-1,1.1-1.8,1.3l2.6,3.8H159.8z M157,123.4c1,0,1.7-0.2,2.2-0.6
			c0.5-0.4,0.8-1,0.8-1.8c0-0.8-0.3-1.4-0.8-1.8c-0.5-0.4-1.2-0.6-2.2-0.6h-2.8v4.9H157z"/>
		<path class="st12" d="M174.4,117.2h1.5v11.1h-1.5l-6.3-8.6v8.6h-1.5v-11.1h1.5l6.4,8.6V117.2z"/>
		<path class="st12" d="M189.7,128.3l-1.2-2.7h-5.8l-1.2,2.7h-1.6l4.9-11.1h1.6l4.9,11.1H189.7z M183.3,124.2h4.7l-2.3-5.4
			L183.3,124.2z"/>
		<path class="st12" d="M192.9,117.2h8.7v1.4H198v9.7h-1.5v-9.7h-3.6V117.2z"/>
		<path class="st12" d="M205.7,117.2h1.5v11.1h-1.5V117.2z"/>
		<path class="st12" d="M220.5,117.8c0.9,0.5,1.6,1.2,2.1,2c0.5,0.9,0.8,1.8,0.8,2.8s-0.3,2-0.8,2.9s-1.2,1.6-2.1,2.1
			c-0.9,0.5-1.9,0.8-2.9,0.8s-2-0.3-2.9-0.8c-0.9-0.5-1.6-1.2-2.1-2.1s-0.8-1.8-0.8-2.9s0.3-2,0.8-2.8c0.5-0.9,1.2-1.5,2.1-2
			c0.9-0.5,1.9-0.7,2.9-0.7C218.6,117.1,219.6,117.3,220.5,117.8z M215.4,119c-0.7,0.4-1.2,0.9-1.6,1.5c-0.4,0.6-0.6,1.4-0.6,2.1
			s0.2,1.5,0.6,2.2c0.4,0.7,0.9,1.2,1.6,1.6c0.7,0.4,1.4,0.6,2.1,0.6c0.8,0,1.5-0.2,2.1-0.6c0.6-0.4,1.2-0.9,1.6-1.6
			c0.4-0.7,0.6-1.4,0.6-2.2s-0.2-1.5-0.6-2.1c-0.4-0.6-0.9-1.2-1.6-1.5c-0.6-0.4-1.4-0.6-2.1-0.6C216.8,118.5,216.1,118.6,215.4,119
			z"/>
		<path class="st12" d="M235.9,117.2h1.5v11.1h-1.5l-6.3-8.6v8.6H228v-11.1h1.5l6.4,8.6V117.2z"/>
		<path class="st12" d="M251.2,128.3l-1.2-2.7h-5.8l-1.2,2.7h-1.6l4.9-11.1h1.6l4.9,11.1H251.2z M244.7,124.2h4.7l-2.3-5.4
			L244.7,124.2z"/>
		<path class="st12" d="M256.8,117.2h1.5v9.7h4.8v1.4h-6.4V117.2z"/>
	</g>
</g>
</svg>
