<?xml version="1.0" encoding="utf-8"?>
<!-- Generator: Adobe Illustrator 23.0.1, SVG Export Plug-In . SVG Version: 6.00 Build 0)  -->
<svg version="1.1" id="Layer_1" xmlns="http://www.w3.org/2000/svg" xmlns:xlink="http://www.w3.org/1999/xlink" x="0px" y="0px"
	 viewBox="0 0 446.3 127.5" style="enable-background:new 0 0 446.3 127.5;" xml:space="preserve">
<style type="text/css">
	.st0{fill:#95BF47;}
	.st1{fill:#5E8E3E;}
	.st2{fill:#FFFFFF;}
</style>
<g>
	<g>
		<path class="st0" d="M95.9,24.2c-0.1-0.6-0.6-1-1.1-1c-0.5,0-10-0.7-10-0.7s-6.6-6.6-7.4-7.3c-0.7-0.7-2.2-0.5-2.7-0.3
			c-0.1,0-1.5,0.4-3.7,1.1c-2.2-6.4-6.1-12.3-13-12.3c-0.2,0-0.4,0-0.6,0C55.4,1.1,53,0,50.9,0C34.8,0,27.1,20.1,24.7,30.3
			c-6.2,1.9-10.7,3.3-11.2,3.5c-3.5,1.1-3.6,1.2-4,4.5C9.1,40.7,0,111.2,0,111.2l71,13.3l38.5-8.3C109.5,116.2,96,24.9,95.9,24.2z
			 M67,17.2c-1.8,0.6-3.8,1.2-6,1.9c0-0.4,0-0.8,0-1.3c0-4-0.6-7.2-1.4-9.7C63.2,8.5,65.5,12.5,67,17.2z M55.2,8.8
			c1,2.5,1.6,6,1.6,10.8c0,0.2,0,0.5,0,0.7c-3.9,1.2-8.2,2.5-12.4,3.8C46.8,15,51.3,10.5,55.2,8.8z M50.4,4.3c0.7,0,1.4,0.2,2.1,0.7
			c-5.1,2.4-10.7,8.5-13,20.7c-3.4,1.1-6.7,2.1-9.8,3C32.4,19.4,38.9,4.3,50.4,4.3z"/>
		<path class="st1" d="M94.8,23.2c-0.5,0-10-0.7-10-0.7s-6.6-6.6-7.4-7.3c-0.3-0.3-0.6-0.4-1-0.5L71,124.5l38.5-8.3
			c0,0-13.5-91.3-13.6-91.9C95.8,23.6,95.2,23.3,94.8,23.2z"/>
		<path class="st2" d="M57.9,44.5l-4.7,14.1c0,0-4.2-2.2-9.3-2.2c-7.5,0-7.8,4.7-7.8,5.9c0,6.4,16.8,8.9,16.8,24
			c0,11.9-7.5,19.5-17.7,19.5c-12.2,0-18.4-7.6-18.4-7.6l3.3-10.8c0,0,6.4,5.5,11.8,5.5c3.5,0,5-2.8,5-4.8c0-8.4-13.8-8.8-13.8-22.6
			c0-11.6,8.3-22.9,25.2-22.9C54.7,42.6,57.9,44.5,57.9,44.5z"/>
	</g>
	<path id="s" d="M154.3,70.9c-3.8-2.1-5.8-3.8-5.8-6.2c0-3.1,2.7-5,7-5c5,0,9.4,2.1,9.4,2.1l3.5-10.7c0,0-3.2-2.5-12.7-2.5
		c-13.2,0-22.4,7.6-22.4,18.2c0,6,4.3,10.6,10,13.9c4.6,2.6,6.2,4.5,6.2,7.2c0,2.9-2.3,5.2-6.6,5.2c-6.4,0-12.4-3.3-12.4-3.3
		l-3.7,10.7c0,0,5.6,3.7,14.9,3.7c13.6,0,23.3-6.7,23.3-18.7C165.2,78.9,160.2,74.3,154.3,70.9z"/>
	<path id="h" d="M208.5,48.4c-6.7,0-11.9,3.2-16,8l-0.2-0.1l5.8-30.4h-15.1l-14.7,77.3h15.1l5-26.4c2-10,7.1-16.1,11.9-16.1
		c3.4,0,4.7,2.3,4.7,5.6c0,2.1-0.2,4.6-0.7,6.7l-5.7,30.3h15.1l5.9-31.2c0.7-3.3,1.1-7.2,1.1-9.9C220.8,53.5,216.3,48.4,208.5,48.4z
		"/>
	<path id="o" d="M255,48.4c-18.2,0-30.3,16.4-30.3,34.7c0,11.7,7.2,21.2,20.8,21.2c17.9,0,29.9-16,29.9-34.7
		C275.5,58.7,269.2,48.4,255,48.4z M247.6,92.6c-5.2,0-7.3-4.4-7.3-9.9c0-8.7,4.5-22.8,12.7-22.8c5.4,0,7.1,4.6,7.1,9.1
		C260.1,78.4,255.6,92.6,247.6,92.6z"/>
	<path id="p" d="M314.2,48.4c-10.2,0-16,9-16,9H298l0.9-8.1h-13.4c-0.7,5.5-1.9,13.8-3.1,20.1l-10.5,55.4H287l4.2-22.4h0.3
		c0,0,3.1,2,8.9,2c17.8,0,29.4-18.2,29.4-36.6C329.8,57.5,325.3,48.4,314.2,48.4z M299.8,92.9c-3.9,0-6.2-2.2-6.2-2.2l2.5-14.1
		c1.8-9.4,6.7-15.7,11.9-15.7c4.6,0,6,4.3,6,8.3C314,78.9,308.2,92.9,299.8,92.9z"/>
	<path id="dot" d="M351.4,26.6c-4.8,0-8.7,3.8-8.7,8.8c0,4.5,2.8,7.6,7.1,7.6h0.2c4.7,0,8.8-3.2,8.9-8.8
		C359,29.8,356,26.6,351.4,26.6z"/>
	<polygon id="i" points="330.2,103.2 345.4,103.2 355.7,49.6 340.4,49.6 	"/>
	<path id="f" d="M394.1,49.4h-10.5l0.5-2.5c0.9-5.2,3.9-9.8,9-9.8c2.7,0,4.8,0.8,4.8,0.8l3-11.8c0,0-2.6-1.3-8.2-1.3
		c-5.4,0-10.7,1.5-14.8,5c-5.2,4.4-7.6,10.7-8.8,17.1l-0.4,2.5h-7l-2.2,11.4h7l-8,42.3h15.1l8-42.3h10.4L394.1,49.4z"/>
	<path id="y" d="M430.5,49.6c0,0-9.5,23.8-13.7,36.8h-0.2c-0.3-4.2-3.7-36.8-3.7-36.8H397l9.1,49.2c0.2,1.1,0.1,1.8-0.3,2.5
		c-1.8,3.4-4.7,6.7-8.2,9.1c-2.8,2.1-6,3.4-8.5,4.3l4.2,12.8c3.1-0.7,9.4-3.2,14.8-8.2c6.9-6.5,13.3-16.4,19.8-30l18.5-39.7H430.5z"
		/>
</g>
</svg>
