<?xml version="1.0" encoding="utf-8"?>
<!-- Generator: Adobe Illustrator 23.0.1, SVG Export Plug-In . SVG Version: 6.00 Build 0)  -->
<svg version="1.1" id="Layer_1" xmlns="http://www.w3.org/2000/svg" xmlns:xlink="http://www.w3.org/1999/xlink" x="0px" y="0px"
	 viewBox="0 0 66.3 66.3" style="enable-background:new 0 0 66.3 66.3;" xml:space="preserve">
<style type="text/css">
	.st0{fill:#CCD4DB;}
</style>
<g>
	<g>
		<path class="st0" d="M47.4,48v2.1H22.1l0.1-2.2l14.6-15.3c1.8-1.8,3.2-3.7,4.3-5.5c1-1.8,1.6-3.4,1.6-4.7c0-2.1-0.8-3.7-2.4-4.9
			c-1.6-1.2-3.8-1.8-6.6-1.8c-1.8,0-3.6,0.4-5.5,1.2c-1.9,0.8-3.5,1.9-5,3.3L22,18.5c1.6-1.5,3.4-2.7,5.5-3.6
			c2.1-0.8,4.2-1.3,6.3-1.3c3.4,0,6.1,0.8,8.1,2.3s3,3.7,3,6.3c0,1.6-0.6,3.4-1.8,5.4c-1.2,2-2.8,4.1-4.8,6.3L24.7,48H47.4z"/>
	</g>
	<path class="st0" d="M33.2,66.3C14.9,66.3,0,51.4,0,33.2C0,14.9,14.9,0,33.2,0c18.3,0,33.2,14.9,33.2,33.2
		C66.3,51.4,51.4,66.3,33.2,66.3z M33.2,1.8C15.9,1.8,1.8,15.9,1.8,33.2s14.1,31.4,31.4,31.4s31.4-14.1,31.4-31.4S50.4,1.8,33.2,1.8
		z"/>
</g>
</svg>
