<svg xmlns="http://www.w3.org/2000/svg" viewBox="0 0 66.3 66.3" fill="#ccd4db"><path d="M43.1 33.6c2.4 1.7 3.6 4 3.6 7 0 2.2-.6 4.1-1.7 5.8s-2.7 3-4.8 4c-2.1.9-4.5 1.4-7.3 1.4-2.1 0-4.2-.3-6.3-.9s-3.9-1.4-5.5-2.4l1-1.9c1.5.9 3.1 1.7 5 2.2 1.9.6 3.8.8 5.7.8 3.6 0 6.5-.8 8.6-2.4s3.1-3.8 3.1-6.4-1-4.6-3.1-6-5-2.1-8.7-2.1h-4.4V31l13.5-13.7H22.7v-2.1h22.1v1.7l-13.7 14 2.3.1c4.1.1 7.3.9 9.7 2.6zm-9.9 32.7C14.9 66.3 0 51.4 0 33.2S14.9 0 33.2 0s33.2 14.9 33.2 33.2-15 33.1-33.2 33.1zm0-64.5C15.9 1.8 1.8 15.9 1.8 33.2s14.1 31.4 31.4 31.4 31.4-14.1 31.4-31.4C64.5 15.9 50.4 1.8 33.2 1.8z"/></svg>