<?xml version="1.0" encoding="utf-8"?>
<!-- Generator: Adobe Illustrator 23.0.1, SVG Export Plug-In . SVG Version: 6.00 Build 0)  -->
<svg version="1.1" id="Layer_1" xmlns="http://www.w3.org/2000/svg" xmlns:xlink="http://www.w3.org/1999/xlink" x="0px" y="0px"
	 viewBox="0 0 66.3 66.3" style="enable-background:new 0 0 66.3 66.3;" xml:space="preserve">
<style type="text/css">
	.st0{fill:#CCD4DB;}
</style>
<g>
	<g>
		<path class="st0" d="M43.1,33.6c2.4,1.7,3.6,4,3.6,7c0,2.2-0.6,4.1-1.7,5.8c-1.1,1.7-2.7,3-4.8,4c-2.1,0.9-4.5,1.4-7.3,1.4
			c-2.1,0-4.2-0.3-6.3-0.9c-2.1-0.6-3.9-1.4-5.5-2.4l1-1.9c1.5,0.9,3.1,1.7,5,2.2c1.9,0.6,3.8,0.8,5.7,0.8c3.6,0,6.5-0.8,8.6-2.4
			c2.1-1.6,3.1-3.8,3.1-6.4c0-2.6-1-4.6-3.1-6s-5-2.1-8.7-2.1h-4.4v-1.7l13.5-13.7H22.7v-2.1h22.1v1.7l-13.7,14l2.3,0.1
			C37.5,31.1,40.7,31.9,43.1,33.6z"/>
	</g>
	<path class="st0" d="M33.2,66.3C14.9,66.3,0,51.4,0,33.2S14.9,0,33.2,0s33.2,14.9,33.2,33.2S51.4,66.3,33.2,66.3z M33.2,1.8
		C15.9,1.8,1.8,15.9,1.8,33.2c0,17.3,14.1,31.4,31.4,31.4s31.4-14.1,31.4-31.4C64.5,15.9,50.4,1.8,33.2,1.8z"/>
</g>
</svg>
