<svg xmlns="http://www.w3.org/2000/svg" xmlns:xlink="http://www.w3.org/1999/xlink" viewBox="0 0 148.2 132.3"><defs><path id="A" d="M141.3 86.4l-.5-1c-2.6 2.3-2.6-7.9-4.8-10.2-.7-.8-1.6-1.6-2.3-2.4s-.8-2.9-2.7-2.6c-1.2.2-1.6 1.4-3.1 1.4-1.1.1-2.3-.2-3.2-.9-1.1-.7-1.4-1.8-2.5-1.1s-5.1-4.5-7.3-7.6c-.9-1.3-8.9-6.4-4.1-7.7-1.7-1.2-8.3 2.9-8.5 5.2-.6-.4-1.2-.7-1.9-1-.4-.1-1.2.7-1.5.4-.8-.7-.9-2.2.2-2.6-1.5-.4-3 .3-4-.2-.7-.3-.4-1.2-1.6-1.3-.7-.1-1.5.3-1.8.9-.7-1.6-.7-4.3-2.3-5.2-1.4-.6-2.9-.8-4.4-.7-1.7.2-2.8 2-4.4 2.4-.9.3-1.8 0-2.7.2s-1.5.9-2.3 1-1.9-.8-2.6-.5-1.2 1.7-2 2.2c-1.7.9-3.7.5-5.6.6-.7 0-1.4.1-2.1.3-.2.1-.3 1-.5 1.1-1 .2-2.7-1.2-3.7-.8-1.8.8-.2 4.3 1.5 4.8a6.04 6.04 0 0 0-3.5 3.5l.9.4c-.7 1.4-1.6.9-2.8.8.6 2.1.9 2.4 2.6 3.1.8.3-3.4 3.8-5 3.2a26.85 26.85 0 0 1-3.3-1.8c-.3-.2-.7-.3-1.1-.3-1.4.1-.2.2-1.3.6s.2.6-.8.8c-1.4.2-.9-1.2-2-1.5s-3 1.8-3.6 2.8c-.4-.5-2.2-3-3-2.9s-.9 1.8-1.2 2.7c-.6-1.3-2-3.7-3.2-4.3s-.7.3-1.9.1c-.3 0-.6.4-.8.3s-.5-.9-.8-1c-.6-.3-1.2-.4-1.8-.3s-1.2 1-1.7.9-.6-1.2-1.3-1.3c-1.2-.2-1.2.6-1.8 1.2s-.6 1.1-1.2 1.5c-.3.2-1.3.4-1.7.7-.7.4-2.9 1.8-3 2.3-.1.8-2.9 1.1-3.4.2-.5.4-1.3.9-1.6 1.4-.2.5-1.4 10.5-1.6 11-1.1 2-2.5 2.5-.3 4.1-.5.8-1.6 2.1-1.4 2.8.6.9 1.3 1.8 2 2.6.9.9-.2.4.9 1 .5.3 1.4-.2 1.9.1 1 .5.4.9 1.2 2.1.4.6 1.6.7 1.8 1.3s-.2.3-.1 1.1c.1 1.1-1.3 2.3.7 2.5l2.5-1.6c1.2-.6 2.7-1.8 4-2 1.7-.1 3.4-.1 5.1.2 2.8.3 2.5 2.8 1.8 5.3-.9 3.4-1.5 1.2-4 1.6-2.3.3-3.3 2.6-1.5 4.5-1.4.3-4.8-2-3.3.9.2.4 1 .5 1.3.9.3.6.5 1.3.7 1.9.4 1.1 1.3 1.8.5 3 1.3-.4 3.8 1.1 4.3 2.4s-1.6 4.8.8 4.9c.3-.9.4-2.2 1-2.7.3-.3 1.2-.1 1.7-.2.1 0 .8-.7.8-.7 2-.3 3 .9 4.1 2.9.8 1.4 1.8 3.8 3 1.4.8-1.5 0-6.3 0-8 0-2.3-.7-6.3 0-8.4.5-1.6 2.2-1.5 3.9-2 1.1-.3 2.8-1.3 3.9-1.1s.6.4 1.5.7c2.6.9 1.6.3 3-2.1l.8.5c.8-4.2 3.8.7 3.8 2.5 0 1.1-1.2 2.3-1 3.4.7 1.1 1.5 2.2 2.3 3.3 1.9 2.1 4.6 1.2 7 1.2 1.1 0 2.9-.8 3.9-.5 1 .6 2 1.3 2.9 2 .7 1 .4 3.1.9 4.3s1.4 2.1 1.9 3.3c.8 1.8.6 2.2 2.5 2.3 1.7.1 1.1-.9 2.3.7.7.9 1 3.2 2.3 1.6.9-1 0-2.6.8-3.6s2.7-1.4 3.7-1.9c.8-.5 1.7-1.7 2.8-1.5.4-5.9 5.3-2.4 8.3-.9 0-2-.3-3.6 1.3-4.1s3 1.1 4.6 1.3c2.9.4 5.9-.3 8.9 0 2.1.2 2.4.1 4.2 1.3.7.4 1.5 1.2 2.3 1 1.3-.3.1-.4.9-1.3 1.4-1.6 1.7-1.7 1.2-4.1s-1-3.3-.3-5.8c-.5.2-1.9.5-1.9-.4 0-.7 2.3-1 2.8-1.2.8-.2 2.3-1.2 2.8-1.2.7.1 1.2 1.2 2.1 1.2 2-.1.3-1.6.4-3.3.2-2 .6-4 1.2-5.9 1-1.1 2.7.2 3.9.3 2.1.1 2.9 1.1 4.7-.1 1.1-.7.9-.1 1.3-1.2s-.8-2.6-.6-3.7c.4-2.2 2.3-2 3.8-1.9-.1-.7 0-1.3.1-2 0 0 .9-1.4.9-1-.3-1.1-.6-2-1-2.8z"/><path id="B" d="M20.6 75.7c.5-.2.8-.7.6-1.2s-.7-.7-1.2-.6c-.5.2-.8.7-.6 1.2s.7.8 1.2.6z"/><path id="C" d="M28.8 72.9c.5-.2.8-.7.6-1.2s-.7-.8-1.2-.6-.8.7-.6 1.2.7.8 1.2.6z"/><path id="D" d="M32.9 71.5c.5-.2.8-.7.6-1.2s-.7-.8-1.2-.6-.8.7-.6 1.2c.1.5.7.8 1.2.6z"/><path id="E" d="M69.7 58.9c.5-.2.8-.7.7-1.2s-.7-.8-1.2-.7-.8.7-.7 1.2v.1c.1.5.7.8 1.2.6z"/><path id="F" d="M73.7 57.5c.5-.2.8-.7.6-1.2s-.7-.8-1.2-.6-.8.7-.6 1.2.7.7 1.2.6z"/><path id="G" d="M77.8 56.1c.5-.1.8-.6.7-1.1s-.6-.8-1.1-.7c-.1 0-.1 0-.2.1-.5.2-.8.7-.6 1.2.2.4.7.6 1.2.5z"/><path id="H" d="M81.9 54.7c.5-.2.7-.7.6-1.2-.2-.5-.7-.8-1.2-.7s-.8.7-.7 1.2.7.8 1.2.7h.1z"/><path id="I" d="M84.8 52.7c.2.5.7.8 1.2.6s.8-.7.6-1.2-.7-.8-1.2-.6c-.5.1-.8.7-.6 1.2z"/><path id="J" d="M14.4 81.2c-.2-.5-.7-.8-1.2-.6s-.8.7-.6 1.2.7.8 1.2.6c.5-.1.7-.7.6-1.2z"/><path id="K" d="M16.7 80.4c.2.5.7.8 1.2.7s.8-.7.7-1.2-.7-.8-1.2-.7h-.1c-.5.2-.8.8-.6 1.2z"/><path id="L" d="M20.8 79c.2.5.7.8 1.2.6s.8-.7.6-1.2-.7-.8-1.2-.6-.8.7-.6 1.2z"/><path id="M" d="M28.9 76.2c.2.5.7.8 1.2.6s.8-.7.6-1.2-.7-.8-1.2-.6-.7.7-.6 1.2z"/><path id="N" d="M82.1 58c.2.5.7.8 1.2.6s.8-.7.6-1.2-.7-.8-1.2-.6c-.6.2-.8.7-.6 1.2-.1 0-.1 0 0 0z"/><path id="O" d="M18 84.4c.2.5.7.8 1.2.6s.8-.7.6-1.2-.7-.8-1.2-.6c-.5.1-.7.7-.6 1.2z"/><path id="P" d="M79.9 62.1c-.5.2-.8.7-.6 1.2s.7.8 1.2.6.8-.7.6-1.2-.7-.7-1.2-.6z"/><path id="Q" d="M84 60.7c-.5.2-.8.7-.6 1.2s.7.8 1.2.6.8-.7.6-1.2-.7-.8-1.2-.6z"/><path id="R" d="M88.1 59.3c-.5.2-.8.7-.7 1.2s.7.8 1.2.7.8-.7.7-1.2v-.1c-.2-.5-.7-.7-1.2-.6z"/><path id="S" d="M17.1 89.1c-.2-.5-.7-.8-1.2-.6s-.8.7-.6 1.2.7.8 1.2.6.8-.7.6-1.2z"/><path id="T" d="M21.2 87.7c-.2-.5-.7-.8-1.2-.6s-.8.7-.6 1.2.7.8 1.2.6.7-.7.6-1.2z"/><path id="U" d="M33.4 83.5c-.2-.5-.8-.7-1.3-.5-.4.2-.7.7-.5 1.1.1.5.7.8 1.2.7s.8-.7.7-1.2l-.1-.1z"/><path id="V" d="M39.8 81.3c.2.5.7.8 1.2.7s.8-.7.7-1.2c-.2-.5-.7-.8-1.2-.7h-.1c-.5.1-.8.7-.6 1.2z"/><path id="W" d="M60.8 73c-.5.2-.8.7-.6 1.2s.7.8 1.2.6.8-.7.6-1.2c-.1-.5-.7-.7-1.2-.6z"/><path id="X" d="M65.5 73.4c.5-.2.8-.7.7-1.2s-.7-.8-1.2-.7-.8.7-.7 1.2v.1c.2.5.7.8 1.2.6z"/><path id="Y" d="M72.5 70c.2.5.7.8 1.2.6s.8-.7.6-1.2-.7-.8-1.2-.6-.7.8-.6 1.2z"/><path id="Z" d="M85.3 64.6c-.5.2-.7.7-.6 1.2s.7.8 1.2.7.8-.7.7-1.2v-.1c-.2-.5-.8-.7-1.3-.6z"/><path id="a" d="M30.7 88.8c-.2-.5-.7-.8-1.2-.7-.5.2-.8.7-.7 1.2.2.5.7.8 1.2.7h.1c.5-.2.7-.7.6-1.2z"/><path id="b" d="M90.8 67.1c-.5.2-.8.7-.6 1.2s.7.8 1.2.6.8-.7.6-1.2c-.2-.4-.7-.7-1.2-.6z"/><path id="c" d="M63.5 80.9c-.5.2-.8.7-.7 1.2s.7.8 1.2.7.8-.7.7-1.2v-.1c-.2-.5-.7-.8-1.2-.6z"/><path id="d" d="M76.4 78.5c.5-.2.8-.7.6-1.2s-.7-.8-1.2-.6-.8.7-.6 1.2c.1.5.7.7 1.2.6z"/><path id="e" d="M83.9 73.9c-.5.2-.8.7-.6 1.2s.7.8 1.2.6.8-.7.6-1.2c-.1-.5-.7-.8-1.2-.6z"/><path id="f" d="M96.2 69.6c-.5.2-.8.7-.7 1.2s.7.8 1.2.7.8-.7.7-1.2v-.1c-.2-.4-.7-.7-1.2-.6z"/><path id="g" d="M101.5 68.8c-.2-.5-.7-.8-1.2-.6s-.8.7-.6 1.2.7.8 1.2.6c.5-.1.8-.7.6-1.2z"/><path id="h" d="M32.8 97.8c.5-.2.7-.7.6-1.2s-.7-.8-1.2-.7-.8.7-.7 1.2v.1c.3.5.8.8 1.3.6z"/><path id="i" d="M61.4 88c.5-.1.8-.7.7-1.2s-.7-.8-1.2-.7h-.1c-.5.2-.7.7-.6 1.2.2.6.7.9 1.2.7z"/><path id="j" d="M32.9 101.1c.1.5.6.8 1.1.7s.8-.6.7-1.1c0-.1 0-.1-.1-.2-.2-.5-.7-.8-1.2-.6-.4.2-.6.8-.5 1.2z"/><path id="k" d="M47 96.3c-.2-.5-.7-.8-1.2-.6s-.8.7-.6 1.2.7.8 1.2.6c.5-.1.7-.7.6-1.2 0 .1 0 .1 0 0z"/><path id="l" d="M86 82.9c.1.5.6.8 1.1.7s.8-.6.7-1.1c0-.1 0-.1-.1-.2-.2-.5-.7-.8-1.2-.6-.4.2-.6.7-.5 1.2z"/><path id="m" d="M95.4 80.7c.5-.2.8-.7.7-1.2s-.7-.8-1.2-.7c-.5.2-.8.7-.7 1.2v.1c.2.5.7.7 1.2.6z"/><path id="n" d="M48.3 100.2c-.1-.5-.6-.8-1.1-.7s-.8.6-.7 1.1c0 .1 0 .1.1.2.2.5.7.8 1.2.6.4-.1.7-.7.5-1.2z"/><path id="o" d="M52.4 98.8c-.2-.5-.7-.8-1.2-.6s-.8.7-.6 1.2.7.8 1.2.6c.5-.1.8-.7.6-1.2 0 .1 0 .1 0 0z"/><path id="p" d="M60 97.2c.5-.1.8-.6.7-1.1s-.6-.8-1.1-.7c-.1 0-.1 0-.2.1-.5.2-.8.7-.6 1.2.2.4.7.7 1.2.5z"/><path id="q" d="M104.3 80c-.5.2-.8.7-.7 1.2s.7.8 1.2.7.8-.7.7-1.2v-.1c-.1-.5-.7-.8-1.2-.6z"/><path id="r" d="M113.8 81.1c-.5.2-.8.7-.7 1.2s.7.8 1.2.7.8-.7.7-1.2v-.1c-.1-.5-.7-.7-1.2-.6z"/><path id="s" d="M79 99.5c.5-.1.8-.7.7-1.2s-.7-.8-1.2-.7h-.1c-.5.2-.7.8-.5 1.3s.7.7 1.1.6z"/><path id="t" d="M115.2 85c-.5.1-.8.7-.7 1.2s.7.8 1.2.7h.1c.5-.2.7-.7.6-1.2-.2-.5-.7-.8-1.2-.7z"/><path id="u" d="M60.5 109.2c-.2-.5-.7-.8-1.2-.7s-.8.7-.7 1.2c.2.5.7.8 1.2.7h.1c.5-.2.8-.7.6-1.2z"/></defs><clipPath id="v"><use xlink:href="#A"/></clipPath><g clip-path="url(#v)"><image width="136" height="86" xlink:href="9292332D.png" transform="translate(7.51 46.337)" overflow="visible"/></g><g fill="#b8cbe0"><path d="M15.1 73.2c-.3 0-.6-.1-.9-.3.2.3.5.4.9.3zm4.2-1.4c.5-.2.8-.7.6-1.2v-.1l-1.5 1c.2.3.5.4.9.3zm4.1-1.4c.5-.2.8-.7.6-1.2s-.7-.7-1.1-.6c-.2.3-.4.6-.7.9v.3c.1.5.7.8 1.2.6zm4.1-1.4c.5-.2.7-.7.6-1.2 0-.1-.1-.2-.1-.2-.5.3-1 .9-1.4.8-.1 0-.2-.1-.3-.2v.2c.1.5.7.8 1.2.6zm31.4-11.8c.2.5.7.8 1.2.6s.8-.7.6-1.2c0-.1-.1-.1-.1-.2-.4-.2-.9-.2-1.4-.1-.1 0-.1.1-.2.1-.1.2-.2.5-.1.8zm5.3-.8a.9.9 0 0 0 .6-.6c-.5.1-.9.1-1.4.2 0 0-.1.1-.1.2a.96.96 0 0 0 .9.2zM73 53c-.2.1-.3.3-.5.5.2-.1.4-.3.5-.5zM12.5 78.5c.5-.2.7-.7.6-1.2-.2-.5-.7-.7-1.2-.6l-.2 1.7c.2.2.5.2.8.1zm4-1.4c.5-.2.8-.7.6-1.2s-.7-.8-1.2-.6-.8.7-.6 1.2.7.8 1.2.6z"/><use xlink:href="#B"/><path d="M24.7 74.3c.5-.1.9-.6.8-1.1s-.6-.9-1.1-.8c-.1 0-.2 0-.2.1-.5.2-.8.7-.6 1.2a.8.8 0 0 0 1.1.6z"/><use xlink:href="#C"/><use xlink:href="#D"/><path d="M61.5 61.7c.5-.2.8-.7.6-1.2s-.7-.8-1.2-.6c-.4.1-.7.5-.7.9.2.1.3.2.5.2l-.4.2c.3.4.8.6 1.2.5z"/><use xlink:href="#C" x="36.7" y="-12.6"/><use xlink:href="#E"/><use xlink:href="#F"/><use xlink:href="#G"/><use xlink:href="#H"/><use xlink:href="#I"/><path d="M88.9 51.3c.2.5.7.7 1.2.6.1 0 .2-.1.3-.2-.2-.4-.6-.8-1-1.1-.1-.1-.3-.1-.4-.2-.2.3-.2.6-.1.9z"/><use xlink:href="#J"/><use xlink:href="#K"/><use xlink:href="#L"/><path d="M24.9 77.6c.2.5.8.7 1.3.5.4-.2.7-.7.5-1.1-.1-.5-.7-.8-1.2-.7s-.8.7-.7 1.2c0 .1 0 .1.1.1z"/><use xlink:href="#M"/><path d="M33 74.8c.2.5.7.8 1.2.6s.8-.7.6-1.2-.7-.8-1.2-.6-.7.8-.6 1.2zm5.3-.8c.5-.2.8-.7.6-1.2s-.7-.8-1.2-.6-.8.7-.6 1.2.7.8 1.2.6zm4.1-1.4c.5-.2.8-.7.6-1.2a.9.9 0 0 0-.6-.6c-.4.4-.8.8-1.1 1.3.1.5.6.7 1.1.5zm4.6-2c-.3.2-.3.3-.3.4.2-.1.3-.2.3-.4z"/><use xlink:href="#C" x="29.9" y="-5.9"/><use xlink:href="#C" x="34" y="-7.3"/><use xlink:href="#L" x="44.9" y="-15.4"/><path d="M69.8 62.2c.2.5.7.8 1.2.7s.8-.7.7-1.2-.7-.9-1.2-.7h-.1c-.5.2-.8.7-.6 1.2z"/><use xlink:href="#L" x="53.1" y="-18.2"/><path d="M78 59.4c.2.5.7.7 1.2.6.5-.2.8-.7.7-1.2s-.7-.8-1.2-.7-.8.7-.7 1.2c-.1 0 0 .1 0 .1z"/><use xlink:href="#N"/><path d="M86.1 56.6c.2.5.7.7 1.2.6s.8-.7.7-1.2-.7-.8-1.2-.7h-.1c-.5.3-.7.8-.6 1.3zm4.1-1.4c.2.5.7.8 1.2.6.1 0 .2-.1.2-.1-.2-.5-.3-1.1-.5-1.7h-.4c-.4.1-.6.7-.5 1.2zM11.7 86.5c-.2-.5-.7-.8-1.2-.6s-.8.7-.6 1.2.7.8 1.2.6c.5-.1.7-.6.6-1.2 0 .1 0 .1 0 0zm4-1.3c-.1-.5-.7-.8-1.2-.7s-.8.7-.7 1.2v.1c.2.5.8.7 1.3.5s.7-.7.6-1.1z"/><use xlink:href="#O"/><path d="M22.1 83c.2.5.7.8 1.2.6s.8-.7.6-1.2-.7-.8-1.2-.6-.7.7-.6 1.2zm4.1-1.5c.2.5.7.8 1.2.6s.8-.7.6-1.2-.7-.8-1.2-.6-.8.8-.6 1.2z"/><use xlink:href="#I" x="-54.5" y="27.5"/><path d="M34.4 78.8c.2.5.7.7 1.2.6.5-.2.8-.7.6-1.2s-.7-.8-1.2-.6c-.5.1-.8.7-.6 1.2z"/><use xlink:href="#L" x="17.7" y="-1.7"/><path d="M43.8 76.5c.5-.2.7-.7.6-1.2-.2-.5-.8-.7-1.3-.5-.4.2-.7.7-.5 1.1.1.5.7.8 1.2.6z"/><use xlink:href="#C" x="19" y="2.2"/><use xlink:href="#C" x="23.1" y="0.8"/><path d="M56 72.3c.5-.2.7-.7.6-1.2 0-.1-.1-.2-.2-.3-.5.4-1 .7-1.6 1a.88.88 0 0 0 1.2.5zm2.9-2c.2.5.7.8 1.2.7s.8-.7.7-1.2c-.2-.5-.7-.8-1.2-.7h-.1c-.5.2-.8.8-.6 1.2z"/><use xlink:href="#L" x="42.2" y="-10.1"/><path d="M67.6 66.3c-.5.2-.7.7-.6 1.2.2.5.8.7 1.3.5.4-.2.7-.7.5-1.1-.1-.5-.7-.7-1.2-.6z"/><use xlink:href="#M" x="42.2" y="-10.1"/><path d="M76.4 65.3c.5-.1.9-.6.8-1.1s-.6-.9-1.1-.8c-.1 0-.2.1-.3.1-.5.2-.7.8-.5 1.3.2.4.7.7 1.1.5z"/><use xlink:href="#P"/><use xlink:href="#Q"/><use xlink:href="#R"/><use xlink:href="#D" x="59.9" y="-11.8"/><path d="M96.9 58.3c.5-.2.7-.7.6-1.2-.2-.5-.7-.8-1.2-.6s-.8.7-.6 1.2c.1.5.7.8 1.2.6zM11.8 89.9c-.5.2-.8.7-.7 1.2.2.5.7.8 1.2.7.5-.2.8-.7.7-1.2v-.1c-.2-.5-.7-.7-1.2-.6z"/><use xlink:href="#S"/><use xlink:href="#T"/><path d="M25.3 86.3c-.2-.5-.7-.7-1.2-.6s-.8.7-.7 1.2.7.8 1.2.7h.1c.5-.3.7-.8.6-1.3z"/><use xlink:href="#S" x="12.2" y="-4.2"/><use xlink:href="#U"/><use xlink:href="#O" x="17.7" y="-1.7"/><use xlink:href="#V"/><use xlink:href="#O" x="25.9" y="-4.5"/><use xlink:href="#V" x="8.2" y="-2.8"/><use xlink:href="#L" x="31.3" y="-1.9"/><path d="M57.3 76.2c.5-.2.7-.7.6-1.2s-.7-.8-1.2-.7-.8.7-.7 1.2v.1c.3.6.9.8 1.3.6z"/><use xlink:href="#W"/><use xlink:href="#X"/><use xlink:href="#P" x="-10.9" y="8.1"/><use xlink:href="#Y"/><path d="M77.2 67.4c-.5.2-.8.7-.7 1.2s.7.8 1.2.7.8-.7.7-1.2V68c-.2-.4-.7-.7-1.2-.6z"/><use xlink:href="#P" x="1.4" y="3.9"/><use xlink:href="#Z"/><use xlink:href="#W" x="28.6" y="-9.8"/><path d="M92.9 63c.2.5.7.8 1.2.7s.8-.7.7-1.2-.7-.8-1.2-.7h-.1c-.5.2-.8.7-.6 1.2zm4.7-2.6c-.5.2-.8.7-.7 1.2s.7.8 1.2.7.8-.7.7-1.2V61c-.2-.5-.7-.7-1.2-.6zm3.5-.2a1.08 1.08 0 0 0 1.4.2c.3-.2.4-.5.4-.8-.1-.2-.2-.4-.4-.5 0 .1-.1.3-.1.4l-.8-.5c-.4.3-.6.8-.5 1.2z"/><use xlink:href="#D" x="73.5" y="-12.1"/><path d="M109.3 57.4c.2.5.7.8 1.2.6.1 0 .1 0 .1-.1l-1.1-1.5a.78.78 0 0 0-.2 1zm-95 37c-.2-.5-.7-.7-1.2-.6-.5.2-.7.7-.6 1.2a.78.78 0 0 0 .4.4c.3-.1.6 0 .8.1h.1c.4-.1.7-.6.5-1.1z"/><use xlink:href="#S" x="1.3" y="3.9"/><path d="M22.5 91.6c-.2-.5-.7-.7-1.2-.6-.5.2-.8.7-.7 1.2.2.5.7.8 1.2.7.5-.2.8-.7.7-1.2.1 0 0-.1 0-.1z"/><use xlink:href="#S" x="9.5" y="1.1"/><use xlink:href="#a"/><use xlink:href="#D" x="1.3" y="17"/><use xlink:href="#F" x="-35.4" y="29.7"/><use xlink:href="#N" x="-40.9" y="27.2"/><path d="M45.2 83.8a.88.88 0 0 0 1.2.5.88.88 0 0 0 .5-1.2c-.2-.5-.7-.7-1.2-.6-.4.2-.6.8-.5 1.3z"/><use xlink:href="#M" x="20.4" y="6.2"/><use xlink:href="#M" x="24.5" y="4.8"/><use xlink:href="#Q" x="-25.9" y="17.7"/><use xlink:href="#Q" x="-21.8" y="16.3"/><path d="M66.9 77.3c.5-.2.8-.7.6-1.2s-.7-.8-1.2-.6c-.5.1-.8.7-.7 1.2s.7.8 1.2.7c0 0 0-.1.1-.1zm2.9-1.9c.2.5.7.8 1.2.6s.8-.7.6-1.2-.7-.8-1.2-.6c-.6.1-.8.7-.6 1.2-.1 0-.1 0 0 0zm5.8-2.1c-.2-.5-.8-.7-1.3-.5-.3.2-.6.7-.5 1.2s.7.8 1.2.7.8-.7.7-1.2c0-.1-.1-.1-.1-.2z"/><use xlink:href="#M" x="49" y="-3.7"/><use xlink:href="#K" x="65.3" y="-9.3"/><use xlink:href="#R" x="-1.4" y="9.2"/><use xlink:href="#b"/><use xlink:href="#W" x="34" y="-7.3"/><path d="M98.3 65.5c.2.5.8.7 1.3.5.4-.2.7-.7.5-1.1-.1-.5-.7-.8-1.2-.7s-.8.7-.7 1.2l.1.1z"/><use xlink:href="#C" x="74.8" y="-8.2"/><use xlink:href="#Y" x="34" y="-7.3"/><use xlink:href="#C" x="83" y="-11"/><path d="M15 97.7c.2.2.4.3.6.4-.1-.2-.4-.3-.6-.4zm3.5-1.4c-.5.2-.7.7-.6 1.2.2.5.7.8 1.2.7s.8-.7.7-1.2-.7-.8-1.2-.7h-.1z"/><use xlink:href="#P" x="-57.2" y="32.8"/><use xlink:href="#W" x="-34.1" y="20.5"/><use xlink:href="#S" x="14.9" y="3.6"/><path d="M34.3 91.9c.1.5.7.8 1.2.6s.8-.7.6-1.2-.7-.8-1.2-.6-.7.8-.6 1.2c0 .1 0 .1 0 0z"/><use xlink:href="#C" x="10.8" y="18.2"/><use xlink:href="#P" x="-36.8" y="25.8"/><use xlink:href="#T" x="27.2" y="-0.6"/><use xlink:href="#T" x="31.3" y="-2"/><use xlink:href="#L" x="34" y="5.9"/><use xlink:href="#S" x="43.5" y="-6.2"/><use xlink:href="#c"/><use xlink:href="#F" x="-5.5" y="23.8"/><use xlink:href="#F" x="-1.4" y="22.4"/><use xlink:href="#d"/><use xlink:href="#F" x="6.8" y="19.6"/><use xlink:href="#e"/><path d="M88 72.5c-.5.2-.7.7-.6 1.2.2.5.8.7 1.3.5.4-.2.7-.7.5-1.1-.2-.5-.7-.8-1.2-.6z"/><use xlink:href="#Q" x="8.1" y="10.4"/><use xlink:href="#f"/><use xlink:href="#g"/><path d="M103.8 68c.2.5.7.8 1.2.6s.8-.7.6-1.2-.7-.8-1.2-.6-.8.8-.6 1.2zm4.1-1.4c.2.5.7.7 1.2.6.5-.2.7-.8.5-1.3-.2-.4-.7-.7-1.1-.5-.5.2-.8.8-.6 1.2z"/><use xlink:href="#N" x="29.9" y="7.2"/><path d="M116 63.8c.1.3.4.6.7.6l-.8-1c.1.2.1.3.1.4zm-99.7 37.8c-.1.4 0 .8.8 1v-.3c-.1-.4-.4-.6-.8-.7zm3.6-1.4c-.4.2-.7.6-.6 1.1l1.5-.9c-.2-.2-.5-.3-.9-.2zm4.1-1.4c-.1 0-.2.1-.3.2h.1c.3-.1.6-.1.9-.1-.2-.1-.4-.1-.7-.1zm5.3-.8c-.2-.5-.8-.7-1.3-.5-.4.2-.7.7-.5 1.1a1.38 1.38 0 0 0 .3.4l1 .1c.5-.1.7-.6.5-1.1z"/><use xlink:href="#h"/><use xlink:href="#D" x="4" y="24.9"/><use xlink:href="#g" x="-60" y="25"/><use xlink:href="#g" x="-55.9" y="23.6"/><use xlink:href="#C" x="20.3" y="19.3"/><path d="M53.2 90.8c.5-.2.8-.7.7-1.2-.2-.5-.7-.8-1.2-.7-.5.2-.8.7-.7 1.2v.1c.2.5.7.8 1.2.6z"/><use xlink:href="#Q" x="-27.3" y="26.9"/><use xlink:href="#i"/><use xlink:href="#D" x="32.6" y="15.1"/><use xlink:href="#F" x="-4.2" y="27.7"/><use xlink:href="#X" x="8.1" y="10.4"/><use xlink:href="#C" x="48.9" y="9.5"/><use xlink:href="#C" x="53" y="8.1"/><use xlink:href="#c" x="21.8" y="-3.1"/><use xlink:href="#Q" x="5.4" y="15.7"/><path d="M93.5 75c-.5.2-.8.7-.6 1.2s.7.8 1.2.6.8-.7.6-1.2-.7-.8-1.2-.6zm4-1.5c-.5.1-.8.7-.7 1.2s.7.8 1.2.7h.1c.5-.2.7-.8.5-1.3-.1-.4-.6-.7-1.1-.6z"/><use xlink:href="#O" x="83" y="-11"/><use xlink:href="#c" x="42.2" y="-10.1"/><use xlink:href="#L" x="88.4" y="-8.5"/><path d="M113.3 69.2c.2.5.7.8 1.2.7s.8-.7.7-1.2-.7-.8-1.2-.7h-.1c-.5.1-.8.7-.6 1.2zm4.7-2.7c-.5.2-.8.7-.6 1.2s.7.8 1.2.6c.4-.1.6-.5.6-.9l-.8-1c-.2.1-.3.1-.4.1z"/><use xlink:href="#j"/><use xlink:href="#C" x="9.4" y="27.4"/><path d="M42.9 97.7c-.2-.5-.7-.8-1.2-.7s-.8.7-.7 1.2c.2.5.7.8 1.2.7h.1c.5-.1.7-.7.6-1.2z"/><use xlink:href="#k"/><use xlink:href="#a" x="20.4" y="6.1"/><path d="M55.1 93.5c-.2-.5-.7-.8-1.2-.6s-.8.7-.6 1.2.7.8 1.2.6c.6-.1.8-.7.6-1.2.1.1.1.1 0 0z"/><use xlink:href="#C" x="29.8" y="20.4"/><use xlink:href="#X" x="-2.8" y="18.5"/><use xlink:href="#C" x="38" y="17.6"/><use xlink:href="#C" x="42.1" y="16.2"/><use xlink:href="#h" x="42.2" y="-10.1"/><use xlink:href="#D" x="46.2" y="14.8"/><path d="M83.2 84.9c.5-.1.8-.7.6-1.2-.1-.5-.7-.8-1.2-.6h-.1c-.5.2-.8.7-.6 1.2s.8.8 1.3.6z"/><use xlink:href="#l"/><use xlink:href="#C" x="62.5" y="9.2"/><use xlink:href="#m"/><use xlink:href="#C" x="70.7" y="6.4"/><path d="M103 76.1c-.5.2-.8.7-.6 1.2s.7.8 1.2.6.8-.7.6-1.2-.7-.7-1.2-.6zm4.1-1.4c-.5.1-.8.6-.7 1.1s.6.8 1.1.7c.1 0 .1 0 .2-.1.5-.2.8-.7.6-1.2-.2-.4-.7-.6-1.2-.5z"/><use xlink:href="#Q" x="27.1" y="12.6"/><use xlink:href="#M" x="85.7" y="-3.1"/><use xlink:href="#F" x="46.2" y="14.8"/><path d="M122.8 70.3c.1.5.7.8 1.1.6.2-.1.4-.2.5-.4-.6-.5-1-1-1.5-1.1-.1.3-.2.6-.1.9z"/><use xlink:href="#S" x="10.8" y="18.2"/><path d="M30.2 106.5c.2.5.7.8 1.2.7.5-.2.8-.7.7-1.2-.2-.5-.7-.8-1.2-.7h-.1c-.1.1-.3.1-.4.3s-.1.3-.2.5c-.1.1-.1.2 0 .4z"/><use xlink:href="#F" x="-38.2" y="48.2"/><path d="M39 102.5c-.5.2-.8.7-.7 1.2.2.5.7.8 1.2.7.5-.2.8-.7.7-1.2v-.1c-.2-.5-.8-.8-1.2-.6z"/><use xlink:href="#e" x="-40.9" y="27.2"/><use xlink:href="#n"/><use xlink:href="#o"/><use xlink:href="#n" x="8.2" y="-2.8"/><use xlink:href="#p"/><use xlink:href="#B" x="43.5" y="20.1"/><path d="M68.2 94.4c.5-.2.8-.7.6-1.2s-.7-.8-1.2-.6-.8.7-.6 1.2c.1.5.7.8 1.2.6 0 .1 0 0 0 0z"/><use xlink:href="#E" x="2.6" y="34.1"/><path d="M76.3 91.6c.5-.2.8-.7.6-1.2s-.7-.8-1.2-.6-.7.7-.6 1.2c.2.5.7.8 1.2.6z"/><use xlink:href="#C" x="51.6" y="17.3"/><use xlink:href="#C" x="55.7" y="15.9"/><use xlink:href="#C" x="59.8" y="14.5"/><use xlink:href="#i" x="31.3" y="-2"/><use xlink:href="#D" x="63.9" y="13.1"/><path d="M100.2 81.4c-.5.2-.8.7-.6 1.2s.7.8 1.2.6c.5-.1.8-.7.7-1.2s-.7-.8-1.2-.7c0 .1 0 .1-.1.1z"/><use xlink:href="#q"/><use xlink:href="#Q" x="24.4" y="17.9"/><use xlink:href="#e" x="28.6" y="3.3"/><path d="M116 77c.2.5.8.7 1.3.5.4-.2.7-.7.5-1.1-.1-.5-.7-.8-1.2-.7s-.8.7-.7 1.2c.1 0 .1.1.1.1zm4.1-1.4c.2.5.7.8 1.2.6s.8-.7.6-1.2-.7-.8-1.2-.6-.8.7-.6 1.2z"/><use xlink:href="#G" x="47.6" y="18.7"/><path d="M129.4 73.4c.5-.2.8-.7.6-1.2s-.7-.8-1.2-.6c-.5.1-.8.7-.7 1.2s.7.8 1.2.7l.1-.1zm2.9-2c.1.4.5.6.9.6-.2-.5-.5-1-.8-1.4-.1.2-.2.5-.1.8zM24.5 113.8c.5-.2.8-.7.6-1.2s-.7-.8-1.2-.6c-.3.1-.6.4-.6.7.2.3.3.7.4 1 .2.1.5.2.8.1zm4.8-2.6c-.2-.5-.7-.8-1.2-.7-.5.2-.8.7-.7 1.2.2.5.7.8 1.2.7h.1c.4-.2.7-.7.6-1.2z"/><use xlink:href="#S" x="16.2" y="20.7"/><path d="M37.4 108.4c-.2-.5-.7-.8-1.2-.6s-.8.7-.6 1.2.7.8 1.2.6.8-.7.6-1.2zm4.1-1.4c-.1-.5-.7-.8-1.2-.7s-.8.7-.7 1.2v.1c.2.4.6.7 1 .6a3.04 3.04 0 0 1 .7-.5c.3-.2.3-.5.2-.7zm4.1-1.5c-.1-.5-.6-.8-1.1-.7s-.8.6-.7 1.1c0 .1 0 .1.1.2.1.4.5.6.9.6l.6-.2c.2-.2.3-.6.2-1zm2.9-2c-.5.2-.8.7-.6 1.2.1.5.7.8 1.2.7s.8-.7.7-1.2v-.1c-.3-.5-.8-.7-1.3-.6z"/><use xlink:href="#e" x="-31.4" y="28.3"/><use xlink:href="#S" x="40.7" y="12.3"/><path d="M61.3 101.2c.5-.2.8-.7.7-1.2s-.7-.8-1.2-.7-.8.7-.7 1.2v.1c.2.5.7.7 1.2.6zm4.1-1.5c.5-.2.8-.7.6-1.2s-.7-.8-1.2-.6-.8.7-.6 1.2.7.8 1.2.6c0 .1 0 0 0 0z"/><use xlink:href="#p" x="9.5" y="1.1"/><path d="M73.6 96.9c.5-.2.8-.7.6-1.2a.88.88 0 0 0-1.2-.5c-.5.2-.8.7-.6 1.2.2.4.7.7 1.2.5z"/><use xlink:href="#D" x="44.8" y="24"/><path d="M81.8 94.1c.5-.2.8-.7.6-1.3-.2-.5-.7-.8-1.3-.6-.5.2-.8.7-.6 1.3.2.5.8.8 1.3.6z"/><use xlink:href="#C" x="57" y="19.8"/><use xlink:href="#C" x="61.1" y="18.4"/><use xlink:href="#C" x="65.2" y="17"/><use xlink:href="#C" x="69.3" y="15.6"/><use xlink:href="#P" x="21.7" y="23.2"/><use xlink:href="#P" x="25.8" y="21.8"/><path d="M109.8 82.5c-.5.2-.8.7-.6 1.2s.7.8 1.2.6.8-.7.6-1.2c-.2-.4-.8-.7-1.2-.6z"/><use xlink:href="#r"/><use xlink:href="#l" x="31.3" y="-2"/><use xlink:href="#M" x="92.5" y="3.3"/><path d="M125.5 78.1c.2.5.7.7 1.2.6.5-.2.7-.8.5-1.3-.2-.4-.7-.7-1.1-.5-.5.2-.7.7-.6 1.2z"/><use xlink:href="#L" x="108.8" y="-2.3"/><path d="M134.3 74.1c-.5.2-.7.7-.6 1.2a1.08 1.08 0 0 0 1.4.2c.3-.2.4-.5.4-.8l-.5-.5c-.2-.1-.5-.2-.7-.1zM26.5 116.5c-.2-.5-.7-.7-1.2-.6-.2.1-.4.3-.5.5 0 .2 0 .3-.1.5v.3c0 .1.1.1.1.2.5 0 .9.1 1.3.3.4-.3.6-.7.4-1.2zm4.1-1.4c-.2-.5-.7-.8-1.2-.6s-.8.7-.6 1.2.7.8 1.2.6.7-.7.6-1.2z"/><use xlink:href="#T" x="13.5" y="26"/><use xlink:href="#q" x="-66.8" y="31.7"/><use xlink:href="#S" x="42.1" y="16.2"/><path d="M63.3 103.9c-.2-.5-.7-.8-1.2-.7s-.8.7-.7 1.2.7.8 1.2.7h.1c.5-.2.7-.7.6-1.2z"/><use xlink:href="#T" x="46.2" y="14.8"/><path d="M70.9 102.3c.5-.2.8-.7.7-1.2-.2-.5-.7-.8-1.2-.7s-.8.7-.7 1.2v.1c.1.5.7.7 1.2.6z"/><use xlink:href="#F" x="1.2" y="43.4"/><use xlink:href="#s"/><use xlink:href="#C" x="54.3" y="25.1"/><path d="M87.2 96.6c.5-.2.8-.7.6-1.2s-.7-.8-1.2-.6-.8.8-.6 1.2c.2.5.7.8 1.2.6z"/><use xlink:href="#p" x="31.3" y="-2"/><use xlink:href="#C" x="66.6" y="20.9"/><path d="M99.5 92.4c.5-.2.8-.7.6-1.2s-.7-.8-1.2-.6-.8.7-.6 1.2c.1.5.6.8 1.2.6-.1.1 0 0 0 0z"/><use xlink:href="#X" x="38" y="17.6"/><use xlink:href="#j" x="73.5" y="-12.1"/><use xlink:href="#C" x="82.9" y="15.3"/><use xlink:href="#t"/><use xlink:href="#P" x="39.4" y="21.5"/><path d="M122.8 83.4c.2.5.7.8 1.2.7.5-.2.8-.7.7-1.2s-.7-.8-1.2-.7h-.1c-.5.2-.8.8-.6 1.2z"/><use xlink:href="#N" x="44.8" y="24"/><use xlink:href="#M" x="102" y="4.4"/><use xlink:href="#X" x="70.7" y="6.4"/><use xlink:href="#W" x="-30.1" y="45.4"/><use xlink:href="#Z" x="-50.5" y="52.4"/><path d="M38.9 115.6c-.5.1-.8.6-.7 1.1s.6.8 1.1.7c.1 0 .1 0 .2-.1.3-.1.6-.4.6-.8v-.4c-.1-.4-.7-.6-1.2-.5zm17.6-5c-.1-.2-.2-.4-.4-.5-.1.2-.1.5-.1.7.1.2.2.4.4.6.1-.2.1-.5.1-.8z"/><use xlink:href="#u"/><use xlink:href="#S" x="47.5" y="18.7"/><path d="M68.7 106.4c-.2-.5-.7-.7-1.2-.6-.5.2-.7.8-.5 1.3.2.4.7.7 1.1.5.5-.2.8-.7.6-1.2z"/><use xlink:href="#T" x="51.6" y="17.3"/><use xlink:href="#C" x="47.5" y="31.9"/><use xlink:href="#m" x="-15" y="22.7"/><use xlink:href="#d" x="8.1" y="23.5"/><path d="M88.5 100.5c.5-.2.8-.7.6-1.2s-.7-.8-1.2-.6-.8.7-.6 1.2.7.8 1.2.6zm4.1-1.3c.5-.2.8-.7.6-1.2s-.7-.8-1.2-.6-.8.7-.6 1.2.7.7 1.2.6z"/><use xlink:href="#F" x="23" y="40.3"/><use xlink:href="#G" x="23" y="40.3"/><use xlink:href="#C" x="76.1" y="22"/><use xlink:href="#D" x="76.1" y="22"/><path d="M113.1 92.1c.5-.2.8-.7.7-1.2-.2-.5-.7-.8-1.2-.7s-.8.7-.7 1.2v.1c.1.5.7.8 1.2.6z"/><use xlink:href="#W" x="55.7" y="15.9"/><path d="M120.6 87.5c-.5.2-.7.8-.5 1.3.2.4.7.7 1.1.5.5-.1.8-.7.7-1.2s-.7-.8-1.2-.7c0 .1 0 .1-.1.1z"/><use xlink:href="#C" x="96.5" y="15"/><path d="M130 85.3c-.1-.5-.6-.8-1.1-.7s-.8.6-.7 1.1c0 .1 0 .1.1.2.2.5.7.8 1.2.6.4-.1.6-.7.5-1.2z"/><use xlink:href="#L" x="111.5" y="5.5"/><path d="M136.4 83.1c.2.5.7.8 1.2.6s.8-.7.6-1.2-.7-.8-1.2-.6-.8.8-.6 1.2zm-108 40.6c0 .5.4.8.8.9v-.3c-.1-.3-.4-.5-.8-.6zm8.4-1c.5-.1.9-.7.7-1.2-.1-.5-.7-.9-1.2-.7-.5.1-.8.5-.7 1 .3.3.6.6.8 1 .1 0 .2 0 .4-.1zm2.9-2c.1.3.4.6.8.6 0-.6-.1-1.3-.1-1.8-.6.2-.9.8-.7 1.2z"/><use xlink:href="#P" x="-19.2" y="50.4"/><use xlink:href="#P" x="-15.1" y="49"/><use xlink:href="#S" x="52.9" y="21.2"/><use xlink:href="#S" x="57" y="19.8"/><path d="M77.6 108.7c.5-.2.7-.7.6-1.2-.2-.5-.8-.7-1.3-.5-.4.2-.7.7-.5 1.1.2.5.7.8 1.2.6z"/><use xlink:href="#C" x="52.9" y="34.4"/><use xlink:href="#C" x="57" y="33"/><use xlink:href="#X" x="24.4" y="31.1"/><use xlink:href="#F" x="20.3" y="45.6"/><use xlink:href="#D" x="65.2" y="30.2"/><use xlink:href="#H" x="20.3" y="45.6"/><use xlink:href="#F" x="32.5" y="41.4"/><use xlink:href="#s" x="31.3" y="-2"/><use xlink:href="#F" x="40.7" y="38.6"/><use xlink:href="#Q" x="33.9" y="32.2"/><use xlink:href="#L" x="100.6" y="13.7"/><use xlink:href="#J" x="112.9" y="9.4"/><path d="M131.3 89.2c-.2-.5-.7-.8-1.2-.6s-.8.7-.6 1.2.7.8 1.2.6c.5-.1.8-.6.6-1.2 0 .1 0 .1 0 0zm2.3-.7c.2.5.7.8 1.2.6s.8-.7.6-1.2-.7-.8-1.2-.6c-.5.1-.7.7-.6 1.2zm4.1-1.5c.2.5.7.8 1.2.6s.8-.7.6-1.2-.7-.8-1.2-.6-.7.7-.6 1.2zm-99 38.4c-.2-.5-.7-.7-1.1-.6.2.5.6 1 1 1.4.2-.2.2-.5.1-.8zM66.1 115c-.1 0-.3.1-.3.2.3 0 .7-.1 1-.2h-.7z"/><use xlink:href="#P" x="-9.7" y="51.5"/><use xlink:href="#g" x="-26" y="44"/><use xlink:href="#X" x="13.5" y="39.2"/><use xlink:href="#C" x="54.3" y="38.3"/><use xlink:href="#D" x="54.3" y="38.3"/><use xlink:href="#u" x="31.3" y="-2"/><use xlink:href="#S" x="78.8" y="16.7"/><path d="M100 104.4c-.2-.5-.7-.7-1.2-.6-.5.2-.7.7-.6 1.2.2.5.7.7 1.2.6.5-.2.7-.7.6-1.2z"/><use xlink:href="#C" x="74.7" y="31.3"/><use xlink:href="#F" x="33.9" y="45.3"/><use xlink:href="#m" x="16.3" y="20.7"/><path d="M115.8 100c.5-.2.8-.7.6-1.2s-.7-.8-1.2-.6-.8.7-.6 1.2c.1.5.6.8 1.2.6-.1 0-.1 0 0 0z"/><use xlink:href="#U" x="87" y="13.9"/><use xlink:href="#S" x="107.4" y="6.9"/><use xlink:href="#Q" x="43.4" y="33.3"/><use xlink:href="#T" x="111.5" y="5.5"/><use xlink:href="#Q" x="51.5" y="30.5"/><use xlink:href="#I" x="54.3" y="38.3"/><path d="M72.8 118.1a.76.76 0 0 0-.2-.4c.1.4.1.7.2 1.1v-.7zm4-1.4c-.2-.5-.7-.8-1.2-.6s-.8.7-.6 1.2.7.8 1.2.6c.5-.1.8-.6.6-1.2 0 .1 0 .1 0 0zm4.1-1.4c-.2-.5-.7-.8-1.2-.7s-.8.7-.7 1.2c.2.5.7.8 1.2.7h.1c.5-.1.8-.7.6-1.2z"/><use xlink:href="#o" x="32.6" y="15.1"/><path d="M89.1 112.5c-.1-.5-.7-.8-1.2-.7s-.8.7-.7 1.2v.1c.2.5.7.7 1.2.6.6-.1.8-.7.7-1.2z"/><use xlink:href="#J" x="78.8" y="29.9"/><path d="M97.3 109.7c-.2-.5-.7-.8-1.2-.6s-.8.7-.6 1.2.7.8 1.2.6c.4-.2.7-.7.6-1.2z"/><use xlink:href="#S" x="84.2" y="19.2"/><use xlink:href="#g" x="3.9" y="38.1"/><path d="M109.5 105.5c-.2-.5-.8-.7-1.3-.5-.4.2-.7.7-.5 1.1.1.5.7.8 1.2.7s.8-.7.7-1.2c0 0-.1 0-.1-.1z"/><use xlink:href="#S" x="96.5" y="15"/><use xlink:href="#C" x="88.3" y="31"/><use xlink:href="#T" x="100.6" y="13.6"/><path d="M124.7 99.3c-.5.2-.8.7-.6 1.2s.7.8 1.2.6.8-.7.6-1.2-.8-.7-1.2-.6zm4-1.4c-.3.1-.6.4-.6.7a1.68 1.68 0 0 1 1.8-.2c-.2-.4-.7-.7-1.2-.5z"/><use xlink:href="#t" x="17.6" y="11.5"/><path d="M136.9 95.1c-.5.1-.8.6-.7 1.1s.6.8 1.1.7c.1 0 .1 0 .2-.1.1 0 .2-.1.3-.2-.1-.6-.4-1.1-.5-1.7-.1.1-.3.1-.4.2zm-62.8 27c-.1-.4-.5-.6-.9-.6.2.5.5.9.8 1.4.1-.3.2-.6.1-.8zm4.1-1.5c-.1-.5-.7-.8-1.2-.7s-.8.7-.7 1.2v.1c.2.5.8.7 1.3.5.5-.1.7-.6.6-1.1z"/><use xlink:href="#k" x="35.3" y="22.9"/><path d="M86.3 117.8c-.2-.5-.7-.7-1.2-.6-.5.2-.7.8-.5 1.3.2.4.7.7 1.1.5.5-.1.8-.7.6-1.2zm2.9-2c-.5.1-.8.7-.7 1.2s.7.8 1.2.7h.1c.5-.2.7-.8.5-1.3-.1-.4-.6-.7-1.1-.6z"/><use xlink:href="#W" x="32.5" y="41.4"/><use xlink:href="#f" x="1.2" y="43.4"/><use xlink:href="#o" x="50.3" y="13.4"/><path d="M106.8 110.8c-.2-.5-.7-.8-1.2-.6s-.8.7-.6 1.2.7.8 1.2.6c.5-.1.7-.6.6-1.2 0 .1 0 0 0 0z"/><use xlink:href="#J" x="96.5" y="28.2"/><path d="M114.9 108c-.2-.5-.7-.8-1.2-.7s-.8.7-.7 1.2.7.8 1.2.7h.1c.6-.1.8-.7.6-1.2z"/><use xlink:href="#W" x="57" y="33"/><use xlink:href="#P" x="42" y="42.5"/><path d="M126 103.2c-.5.1-.8.6-.7 1.1s.6.8 1.1.7c.1 0 .1 0 .2-.1.1 0 .2-.1.3-.2v-.3c0-.2.1-.6.1-1.1-.2-.1-.6-.2-1-.1zM78.3 124c-.5.2-.8.7-.6 1.2s.7.8 1.2.6.8-.7.6-1.2-.7-.8-1.2-.6z"/><use xlink:href="#P" x="2.5" y="60.4"/><use xlink:href="#c" x="23" y="40.3"/><path d="M95.9 118.9c-.2-.5-.7-.8-1.2-.6-.4.1-.6.5-.6.9.5.2 1 .4 1.5.7.3-.2.4-.6.3-1zm2.9-1.9c-.2.1-.4.2-.5.5.2-.2.5-.3.8-.4.1 0 .3 0 .4-.1-.3-.1-.5-.1-.7 0z"/><use xlink:href="#b" x="12" y="48.4"/><use xlink:href="#r" x="-6.9" y="33"/><use xlink:href="#b" x="20.2" y="45.6"/><use xlink:href="#o" x="63.9" y="13.1"/><path d="M119.2 109.9a1.08 1.08 0 0 0-.2 1.4c.2.3.5.4.8.4.4-.1.6-.5.6-.8 0-.1 0-.2-.1-.4-.1-.4-.6-.7-1.1-.6zm7.5-2c.6-.1.8-.4.7-.8h-.1c-.3.1-.5.5-.6.8zm-45.8 20.6c-.1-.4-.5-.6-.8-.6.2.5.5 1 .7 1.4.1-.2.2-.5.1-.8zm27.4-10.4a.78.78 0 0 0-.4.4l1.5-.1c-.3-.3-.7-.4-1.1-.3zm5.2-.8c-.1-.5-.6-.8-1.1-.7s-.8.6-.7 1.1c0 .1 0 .1.1.2.1.2.2.4.5.5h.7c.4-.1.7-.6.5-1.1zm2.9-2c-.5.2-.7.8-.5 1.3.2.4.7.7 1.1.5.5-.1.8-.7.7-1.2s-.7-.8-1.2-.7c0 0 0 .1-.1.1zm3.5-.2c.2.5.7.7 1.2.6 0-.1 0-.2-.1-.4l-.3-1.4h-.2c-.5.1-.7.7-.6 1.2zm-.9 4.7c-.2-.5-.7-.8-1.2-.6-.4.1-.6.5-.6.9.5.4 1.1.6 1.7.6.1-.3.2-.6.1-.9z"/></g><g fill="#96abc2"><path d="M82.2 99.3h-3.4l-1.3-2.7-.6.3-3.4-.5-1.7-3.6-.7-.8-1-1.4-.9-3.6-2.3-1-.2-.4-2.7.4-3.2-.2-2.4.7-3.8-1.7-1.6-2.4-1.4-1.1-.1-1.3 1.2-2.9.1-.6-.8-.8-.4-.6-.9 1.7-.8-.4-.5 2h-2l-2.2-.8-.5-.5-7.2 1.9v16.4L34.4 97l-2-1.8-1.2-2.4-1-1.2-.9-.2-1.4 1.5-.9-.7h-.5l-.9 3L22 94l-.2-3.7.6-.8-.1-.2-2.3-1.4h-.3l-3.3.4 1.5-2.7v-.2l-.6-.7-.8-1.9-2.6-1.2.8-3.1 2.5-.8.2.1.4-1.2 1.3-1.6 2.6-.6 2.5.5.1-.3.6-2.5-.3-1.1-1-.2-2.5.3-2-.6-6.1 2.7-1.3 1.2-3.5-1.9.9-2.6-1.6-1.1-.5-1.4-3.5-.2-.6-2.3L0 62.5l1.7-2.3s-.1 0-.1-.1c-.5-.3-.8-.9-.8-1.6.1-1 .7-1.8 1.6-2.3l.4-.9v-1.6L6.4 51l2.3 3.2-1-2.2 3.2-1.6L13 49l1.3-.2 1.1-2.1 3.4-.7 1.1 1.2.6-.4 3-.4 1 1.2 2.5-.9 3 3.1a1.59 1.59 0 0 1 1-.8c1-.3 1.9.1 4 2l.4-.4h.1l2-1.1c.5-.4 1.2-.5 1.8-.3s1.1.6 1.4 1.1l.9-1.5 3.2.7 2.3 1.5 2.5.5 1 .3.9-.1c.6 0 1.2 0 1.7-.1.2-.1.4-.3.5-.4H53c-1-.1-2-.5-2.8-1.2l-.4-.3-1.3-4.7 2.8.3 1.7-3.1.8-.3-.8-.9-.1-.3c-.3-.7-.4-1.4-.5-2.2-.1-.6 0-1.1.4-1.6.5-.5 1.3-.8 2-.7l1.3.1c.7 0 1.3.2 2 .3l.4-.8.8-.1 3.7-.2h2.9l1.7-.6 1.7-2.1 3.4.6 2.6-1.1h2.6l3.7-2.4 3.3.3 1.1.3 1.4-.8 3.3 3.4v1.7l.5-.3 3.2.7.4.9 1.2-.6 5.9 1.6-1.8 1.1.6.3v-.2l2.2-1.7 1.8-.6 4.6-2.4 5.3 1.6-3.8 2.1v.2l1.6 1.3 2.1.8 2.7 3.2 4 6.1.2.4 2.6-1.7 1.9 1.8 2.1.9h2.1l2.1-1.5 3.7 1.5.7 2 1.7 1.1.9 1.6 1.5.9h1.6l2.6-2 1.6 2.4 1.6 3.4-1.7 1.2-.1 3-3.4-.2-.6.7.9 4.9-2.4.7-2.7 1.6-1.5-1.4-2.6.2-1.9-.7-.4 2.4-.8 2.6 1.4 1.6-1.6 2.9-3.8-1-.2-.2-.2.3-2 .4-.7 2.2.4 1.5.8 2.4.2 2.5-1.9 1.4-.2 2.2-3.5-.1-2.4-1.4-.9-.7h-2.7l-2.1-.4-2 .4-2.1-.3-2.9.3-2.2-.3-1.1-.7-1.8-.2-.1.1.1 4.6-7-3.1H91l-.5.4-.2 2.9-1.7-.1L87 94l-.8-.1-2.9 1.5.1 1.6-1.2 2.3zm-3.7-6.4l1.6 2.5-.1-1.8 5.5-2.8h.5l1.7-1.4.1-1.4 2.4-1.8h3l3.2 1.4v-.5l1.3-2.7 4.6.6 1.1.8 1.2.2 2.8-.3 1.9.3 2.1-.4 2.5.4h3.3l1.6 1.3 1.5.8.1-.7 1.6-1.2-.1-.7-.7-2-.6-2.3.1-.4h-.8l-1.2-3 1.3-.6c.6-.3 1.2-.6 1.8-.7l.3-.1 2.7-.6 1.5-1.6 1.2 1.1 1.1-3.6.7-3.9 2.5-1 2.5.9 3.3-.2.8.8 1.2-.7-.7-3.8 2.6-2.8 1.7.1v-1.5l.9-.6-.2-.4-.7.6h-3.4l-2.9-1.8-1-1.6-2-1.2-.5-1.7-.9-.4-1.6 1.2h-3.7l-3.2-1.4-.6-.6-.1 1-3.1 2.3-2-4.6-3.8-5.7-2-2.4-1.9-.8-3.1-2.6.1-1-1.9 1-1.4.5-1 .8-.8 2.5-3.1-1.4-2.3.7-1.3-2.9-2.7.7-.8-1.8-.5-.1-2.3 1.7-1.9-3.9v-1.1l-.8-.8-.4.2-2.3-.7-1.8-.2-3.5 2.4h-2.9L73 36.7l-2.5-.5-1.1 1.4-3 1H63l-2.6.1-.8 1.5-1.1-.3c-.8-.3-1.6-.4-2.5-.5h-.4c0 .1 0 .2.1.2l.9 1.1 4.3 1.2-5.9 2.6-.2.4 1.3.7-2.6 2.6h2.7l1.3 3.8-1.4 1.2c-.5.6-1.2 1-1.9 1.3a10.9 10.9 0 0 1-2.6.3l-1.1.2-1.5-.5-3-.6-2.3-1.5-.5-.1-.9 1.5-3.4-.4-.3-.8-1.3.4-2.2 2.4-1.1-1.1-1.7-1.6-.4.9-1.1 2.5-2.4-3.6-2.2-2.3-2.5 1-1.4-1.5-.7.1-2.1 1.4-1.7-1.9-.3.1-1.1 2.2-2.1.3-1.9 1.3-.7.4.8 1.6-1 2.7-3.4.8-2.2-3.2v.7l-1.1 2.2-.2.2.2.1 1.4.8L4.1 62l1.4 1.2.3 1.2 3.4.2.7 2.4 2.7 1.8-.5 1.6 6.6-2.9 2.5.7 2.4-.3 3.3.6 1 3.5-.9 3.5-1 2.8-4.4-.9-.9.2-.3.4-.1.4 2.7 3.3h-3.8l.6 1.5.8 1 .1.9h.1l3.9 2.3.7 2 1.5-.1 1.1-1.1 3.5.8 2 2.3.8 1.6.1-16.2 11.2-2.8 1.2 1.3.3.1 1.5-2.9.9.5.5-.8 2.8-.3 1.6 2.2 1.7 1.8-.6 2.5-.7 1.8.6.4 1.4 2.1 2 .9 1.8-.5 3.3.2 4.4-.7.7 1.3 2.7 1.2 1.1 4.5.6.8.8.8 1.2 2.6 1 .2 2.1-1z"/><path d="M18.7 78.5l.4-1.3.8-1 1.8-.4 3.5.7.6-1.6.7-2.9-.6-2.2-2.1-.4-2.4.2-2.4-.7-6.9 3-.7.7-1.4-.8.9-2.6-2.2-1.4-.6-1.9-3.5-.2L0 62.5c.2 1.8.5 3.7 1 5.5.5.3-.3 3.5-.3 3.5L3 73.3l.5 1.8 3.6.2.6 2 2.3 1.5-1 2.7 1.5.8.7-.7 7.2-3.2.3.1zm36.1-26.2l.3-.3.6-.5-.6.3-.3.5zm93.3 7.7l-.7-.8-1.8 1.4-4.9 3.7.8 4.3-1.3.4-1.9 1.1-1.1-1.1-3 .2-2.2-.8-1.2.5-.5 3.2-1 3.4 1.2 1.4-.5.9-2.3-.7-1-.9-.9.9-3.5.7c-.5.1-1 .3-1.5.6l.3.7 1.9-.1-.6 2.1.5 1.9.7 2.1.2 1.7-1.7 1.3-.2 1.5-1.8-.1-1.9-1.1-1.3-1H114l-2.3-.4-2.1.4-2-.3-2.9.3-1.7-.3-1.1-.7-3.2-.4-.7 1.5V90l-5.1-2.3h-2.2l-1.5 1.1-.2 2.1-.8-.1-1.9 1.5-.6-.1-4.2 2.2.1 2.2-.5 1.2h-1.5l-1-2.1-.7-1-1.3.6-2.1-.3-1.4-3.1-.8-.7-.8-1.2-1-4.1-2.5-1-.5-.9-3.5.5-3.2-.2-2.1.5-2.9-1.2-1.5-2.3-1.2-.8-.1-.3 1.1-2.6.4-1.5-1.2-1.3-1.2-1.6-1.1.1-.8 1.5-.8-.5-.8 1.5-.3 1.2h-.6l-1.6-.6-.8-.9-9.3 2.3v16.6l-1.4.7-1-.9-1.3-2.2-1.5-1.7-2.2-.5-1 1.1-.2-.1-2.1.2-.7 2.5-1.2-.5-.1-2.1.8-1-.6-1.6-3.1-1.9-.8-.1-.5.1-.5.7-2.3 1.1-.4 1.6 1.1 1.9 1 2.4.7.9.2 1.1 4.3 2.7.5 1.6 1.3 1 2.2-.2.2.1 1.1-1.1 2.3.6 1.6 1.8 1.2 2.4 1.1 1 1.5-.8.1-17.4 9.6-2.4.9.9 2.6-.6.8-1.6.9.5.9-1.6 1.2-.1 1.2 1.7 1.3 1.3-.4 1.5-1.1 2.7v.3l1.2.9 1.5 2.4L60 95l2.2-.6 3.4.2 3.7-.6.5.9 2.6 1.1 1 4.3.8 1.2.8.8 1.5 3.2 2.3.3 1.4-.6 1.3.5 2.4-.9 4.4-2.2.7.1 1.9-1.6.8.1.2-2.2 1.6-1.1h2.3l5.3-.3.7-1.5 3.3.4 1.2.8 1.8.3 3-.3 2.1.3 2.2-.4 2.4.4h3.1l1.3 1.1 2 1.1 1.8.1.2-1.5 1.8-1.3-.2-1.8-.8-2.2-.5-2 .7-2.2-.1-1.3 3-.6.9-1 2.8-.8 1.1-3.6.6-3.3 1.2-.5 2.3.8 3.2-.2 1.2 1.1 1.9-1.1.6-5-.9-7.9 2.7.1.1-2.3.3-3.3z"/></g><circle cx="107.5" cy="81.3" r="6.4" fill="#ff4000"/><g fill="#34404d"><circle cx="91.6" cy="54.5" r="2.9"/><circle cx="100" cy="63.9" r="2.9"/><circle cx="41.5" cy="57.5" r="2.9"/><circle cx="23.6" cy="64.2" r="2.9"/><circle cx="110.3" cy="46.1" r="2.9"/><circle cx="129.4" cy="59.3" r="2.9"/></g><path d="M84.6 14.5c0 7.8-14.2 32.7-14.2 32.7S56.3 22.3 56.3 14.5C56.1 6.7 62.3.2 70.1 0s14.3 6 14.5 13.8v.7zM70.5 7.8a6.7 6.7 0 1 0 0 13.4 6.7 6.7 0 0 0 6.7-6.7c0-3.6-3-6.6-6.7-6.7z" fill="#ff4000"/></svg>