<svg xmlns="http://www.w3.org/2000/svg" viewBox="0 0 277.8 85.1" fill-rule="evenodd"><path d="M253.2 82.1l-11.4-12.8-11.3 12.8h-23.7l23.2-26L206.8 30h24.5l11.5 12.7L253.9 30h23.6l-23.1 26 23.4 26.2-24.6-.1zm-91.9 0V0h45.6v18.3h-26.3V30h26.3v17.6h-26.3v16.2h26.3v18.4h-45.6v-.1z" fill="#f60"/><path d="M142 0v33.6h-.2c-4.3-4.9-9.6-6.6-15.7-6.6-12.6 0-22.2 8.6-25.5 20C96.8 34.5 87 26.8 72.4 26.8c-11.8 0-21.2 5.3-26.1 14V30H21.8V18.3h26.7V0H0v82.1h21.8V47.6h21.7c-.7 2.7-1 5.4-1 8.1 0 17.1 13.1 29.2 29.8 29.2 14 0 23.3-6.6 28.2-18.6H81.9c-2.5 3.6-4.4 4.7-9.5 4.7-5.9 0-10.9-5.1-10.9-11.2h38.1c1.7 13.6 12.2 25.3 26.8 25.3 6.3 0 12-3.1 15.5-8.3h.2v5.3h19.2V0H142zM62 47.8c1.2-5.2 5.3-8.6 10.3-8.6 5.6 0 9.4 3.3 10.4 8.6H62zm68.4 21.8c-7.1 0-11.5-6.6-11.5-13.5 0-7.4 3.8-14.5 11.5-14.5 7.9 0 11.1 7.1 11.1 14.5 0 7-3.4 13.5-11.1 13.5z" fill="#4d148c"/></svg>