<?xml version="1.0" encoding="utf-8"?>
<!-- Generator: Adobe Illustrator 23.0.1, SVG Export Plug-In . SVG Version: 6.00 Build 0)  -->
<svg version="1.1" id="Layer_1" xmlns="http://www.w3.org/2000/svg" xmlns:xlink="http://www.w3.org/1999/xlink" x="0px" y="0px"
	 viewBox="0 0 277.8 85.1" style="enable-background:new 0 0 277.8 85.1;" xml:space="preserve">
<style type="text/css">
	.st0{fill-rule:evenodd;clip-rule:evenodd;fill:#FF6600;}
	.st1{fill-rule:evenodd;clip-rule:evenodd;fill:#4D148C;}
</style>
<g>
	<path class="st0" d="M253.2,82.1l-11.4-12.8l-11.3,12.8h-23.7L230,56.1L206.8,30h24.5l11.5,12.7L253.9,30h23.6l-23.1,26l23.4,26.2
		L253.2,82.1L253.2,82.1z M161.3,82.1V0h45.6v18.3h-26.3V30h26.3v17.6h-26.3v16.2h26.3v18.4H161.3L161.3,82.1z"/>
	<path class="st1" d="M142,0v33.6h-0.2c-4.3-4.9-9.6-6.6-15.7-6.6c-12.6,0-22.2,8.6-25.5,20c-3.8-12.5-13.6-20.2-28.2-20.2
		c-11.8,0-21.2,5.3-26.1,14V30H21.8V18.3h26.7V0H0v82.1h21.8V47.6h21.7c-0.7,2.7-1,5.4-1,8.1c0,17.1,13.1,29.2,29.8,29.2
		c14,0,23.3-6.6,28.2-18.6H81.9c-2.5,3.6-4.4,4.7-9.5,4.7c-5.9,0-10.9-5.1-10.9-11.2h38.1c1.7,13.6,12.2,25.3,26.8,25.3
		c6.3,0,12-3.1,15.5-8.3h0.2v5.3h19.2V0H142z M62,47.8c1.2-5.2,5.3-8.6,10.3-8.6c5.6,0,9.4,3.3,10.4,8.6L62,47.8L62,47.8z
		 M130.4,69.6c-7.1,0-11.5-6.6-11.5-13.5c0-7.4,3.8-14.5,11.5-14.5c7.9,0,11.1,7.1,11.1,14.5C141.5,63.1,138.1,69.6,130.4,69.6z"/>
</g>
</svg>
