<svg xmlns="http://www.w3.org/2000/svg" xmlns:xlink="http://www.w3.org/1999/xlink" viewBox="0 0 216.4 99.4"><g fill="#fff"><path d="M61.2 58.6h11.2v2.7h-8.1v4.4h7.4v2.7h-7.4v6.4h-3.1V58.6zm13.5 0h3.1V72h7v2.8H74.7V58.6z"/><use xlink:href="#C"/><path d="M116.2 74.8l-2.8-4.8h-4.3v4.8H106V58.6h6.8c2.1 0 3.7.5 4.9 1.5 1.1 1 1.7 2.4 1.7 4.1 0 1.3-.3 2.4-.8 3.2-.5.9-1.3 1.6-2.4 2l3.6 5.4h-3.6zm-7.1-7.5h3.7c1.2 0 2.1-.3 2.7-.8s.9-1.3.9-2.3-.3-1.7-.9-2.2-1.5-.7-2.7-.7h-3.7v6zm13.7-8.7h3.1v16.2h-3.1V58.6zm18.2 1c1.3.7 2.3 1.7 3 2.9s1.1 2.6 1.1 4.2-.4 3-1.1 4.2-1.8 2.2-3.1 2.9-2.8 1-4.4 1h-6.6V58.6h6.8c1.6 0 3 .3 4.3 1zm-1.6 11.8a5.75 5.75 0 0 0 1.9-1.9c.4-.8.7-1.7.7-2.8 0-1-.2-2-.7-2.8s-1.1-1.5-1.9-1.9c-.8-.5-1.7-.7-2.7-.7H133v10.8h3.7c1 0 1.9-.3 2.7-.7zm20 3.4l-1.4-3.4h-7.9l-1.4 3.4h-3.2l7.1-16.2h3.2l7 16.2h-3.4zm-8.2-6.1h5.7l-2.8-6.8-2.9 6.8zm19.2-10.1h11.2v2.7h-8.1v4.4h7.4v2.7h-7.4v6.4h-3.1V58.6z"/><use xlink:href="#C" x="96.7"/><path d="M212.9 74.8l-2.8-4.8h-4.3v4.8h-3.1V58.6h6.8c2.1 0 3.7.5 4.9 1.5 1.1 1 1.7 2.4 1.7 4.1 0 1.3-.3 2.4-.8 3.2-.5.9-1.4 1.6-2.4 2l3.6 5.4h-3.6zm-7.1-7.5h3.7c1.2 0 2.1-.3 2.7-.8s.9-1.3.9-2.3-.3-1.7-.9-2.2-1.5-.7-2.7-.7h-3.7v6zM61.2 82.9h11.9v2.7h-8.8v4h7.9v2.7h-7.9v4.1h9.1v2.7H61.2V82.9zm14 0h3.6l3.7 5.3 3.7-5.3H90l-5.5 7.8 5.9 8.5h-3.7l-4.2-5.8-4.1 5.8h-3.6l5.8-8.3-5.4-8zm29.1 1.5c1.1 1 1.7 2.4 1.7 4.1 0 1.9-.6 3.3-1.7 4.3s-2.7 1.5-4.7 1.5H96v4.8h-3.1V82.9h6.7c2 0 3.5.5 4.7 1.5zm-2.3 6.5c.6-.5.9-1.3.9-2.3s-.3-1.7-.9-2.2-1.5-.7-2.7-.7H96v6h3.4c1.1-.1 2-.3 2.6-.8zm18.3-7.1c1.3.7 2.4 1.7 3.1 3 .8 1.3 1.1 2.7 1.1 4.2s-.4 3-1.1 4.2-1.8 2.3-3.1 3-2.8 1.1-4.4 1.1-3.1-.4-4.4-1.1-2.4-1.8-3.1-3c-.8-1.3-1.1-2.7-1.1-4.2s.4-3 1.1-4.2c.8-1.3 1.8-2.3 3.1-3s2.8-1.1 4.4-1.1 3.1.4 4.4 1.1zm-7.1 2.4c-.9.5-1.5 1.2-2 2s-.7 1.8-.7 2.8.3 2 .8 2.8c.5.9 1.2 1.5 2 2s1.8.7 2.7.7c1 0 1.9-.2 2.7-.7s1.5-1.2 2-2c.5-.9.7-1.8.7-2.8s-.2-2-.7-2.8-1.1-1.5-2-2c-.8-.5-1.7-.7-2.7-.7-1.1 0-2 .2-2.8.7zm24.2 13l-2.8-4.8h-4.3v4.8h-3.1V82.9h6.8c2.1 0 3.7.5 4.9 1.5 1.1 1 1.7 2.4 1.7 4.1 0 1.3-.3 2.4-.8 3.2-.5.9-1.3 1.6-2.4 2l3.6 5.4h-3.6zm-7-7.6h3.7c1.2 0 2.1-.3 2.7-.8s.9-1.3.9-2.3-.3-1.7-.9-2.2-1.5-.7-2.7-.7h-3.7v6zm11.8-8.7h13.2v2.8h-5.1v13.5h-3.1V85.7h-5.1v-2.8z"/></g><linearGradient id="A" gradientUnits="userSpaceOnUse" x1="-2.944" y1="38.097" x2="144.755" y2="47.768"><stop offset="0" stop-color="#51d4ed"/><stop offset=".534" stop-color="#4d9dff"/><stop offset="1" stop-color="#5cacff"/></linearGradient><path d="M132.6 16.1l-3.9 3.9 6.5 6.5h-10.5c-17.8 0-38.2 0-50.7 8.7v-.1c-2.9 2-5.4 2.9-8.3 2.9-3.5 0-6-1.7-6.2-6.6C69.9 30.3 80 27.8 80 18.8c0-4.5-3.7-8.4-10.9-8.4-10.7 0-15.6 8.2-16.9 16h-7.5l2.9-16.2c.4-3 1.9-4.5 5-4.5 1.4 0 3.2.3 5 1.4l2.7-4.8C57.9 1 55.4 0 51.9 0c-7.1 0-11.2 4.1-12 9.9l-3 16.7H24.2l2.9-16.2c.4-3 1.9-4.5 5-4.5 1.4 0 3.2.3 5 1.4l2.7-4.8C37.6 1 35.1 0 31.6 0c-7.1 0-11.2 4.1-12 9.9l-3 16.7H.8L0 32.1h15.9l-4.8 32.8c-.9 6.3-3.4 8.1-7.9 9.9l2 5.6c7.4-2.9 12-6 13.4-15.7l4.8-32.6h12.8l-4.8 32.8c-.9 6.3-3.4 8.1-7.9 9.9l2 5.6c7.4-2.9 12-6 13.4-15.7L43.7 32h8c.4 7.3 4.8 12 13 12 4.6 0 8.6-1.6 12-4.1 11-7.9 30.1-7.9 47.9-7.9h10.5l-6.5 6.5 3.9 3.9 13.2-13.2-13.1-13.1zM68.5 16c2.8 0 3.6 1.9 3.6 3.2 0 4.1-3.8 6.4-12.3 7.2.8-5.1 3.2-10.4 8.7-10.4z" fill="url(#A)"/><defs ><path id="C" d="M99 59.4c1.3.7 2.4 1.7 3.1 3 .8 1.3 1.1 2.7 1.1 4.2s-.4 3-1.1 4.2c-.8 1.3-1.8 2.3-3.1 3s-2.8 1.1-4.4 1.1-3.1-.4-4.4-1.1-2.4-1.8-3.1-3c-.8-1.3-1.1-2.7-1.1-4.2s.4-3 1.1-4.2c.8-1.3 1.8-2.3 3.1-3s2.8-1.1 4.4-1.1 3.1.4 4.4 1.1zm-7.1 2.5c-.9.5-1.5 1.2-2 2s-.7 1.8-.7 2.8.3 2 .8 2.8c.5.9 1.2 1.5 2 2s1.8.7 2.7.7c1 0 1.9-.2 2.7-.7s1.5-1.2 2-2c.5-.9.7-1.8.7-2.8s-.2-2-.7-2.8-1.1-1.5-2-2c-.8-.5-1.7-.7-2.7-.7-1-.1-1.9.2-2.8.7z"/></defs></svg>