<svg xmlns="http://www.w3.org/2000/svg" viewBox="0 0 187.1 22.1"><path d="M143.3 14.6c-1 3.3-3.8 4.7-7.1 4.7-4.2 0-7.5-2.3-7.5-7.6 0-5.2 3.4-7.5 7.5-7.5 3.3 0 6.1 1.5 7.1 4.7h-3.9c-.6-1.7-1.8-2.3-3.2-2.3-2 0-3.6 1.2-3.6 5.1s1.6 5.1 3.6 5.1c1.4 0 2.6-.6 3.2-2.3h3.9v.1zm38.1-4.3c1.2 0 2.2.8 2.2 3.4s-1 3.4-2.2 3.4-2.2-.8-2.2-3.4c0-2.7 1-3.4 2.2-3.4zm0-2.4c3.1 0 5.7 1.8 5.7 5.7s-2.6 5.7-5.7 5.7-5.7-1.8-5.7-5.7 2.6-5.7 5.7-5.7zm-10 9.3c-.9.7-2 1-3.1 1-2.7 0-5-1.6-5-5.1s2.2-5.1 5-5.1c1.2 0 2.4.3 3.2 1l.1-.7h3.1v9.3c0 2.8-1.8 4.5-5.4 4.5-2.5 0-4.7-1.1-4.9-3.1h3.2c.2.4.8.9 1.9.9 1.6 0 2-.7 2-2v-.7h-.1zm-2.4-6.8c1.2 0 2.2.6 2.2 2.6s-1 2.6-2.2 2.6-2.3-.6-2.3-2.6c.1-2 1.1-2.6 2.3-2.6zM38.1 15.9V19h-9.9V4.2h3.7v11.6h6.2v.1zm7.8 2c-.3.4-1.3 1.5-3.2 1.5s-3.8-1.3-3.8-3.4V8.3h3.5v7c0 .5.4 1.4 1.6 1.4s1.7-1.1 1.7-1.7V8.3h3.5V19h-3.1l-.2-1.1zm113.5-8.5c.4-.6 1.3-1.5 3.3-1.5v2.7c-.7-.2-1.2-.2-1.4-.2-1.3 0-1.6 1.2-1.6 1.7V19h-3.5V8.3h3.1l.1 1.1zm-68 0c.3-.4 1.3-1.5 3.2-1.5s3.8 1.3 3.8 3.4V19h-3.5v-7c0-.6-.4-1.4-1.6-1.4s-1.7 1.2-1.7 1.7V19h-3.5V8.3h3.1l.2 1.1zm-22.5-.2c.1-.2 1.1-1.3 3-1.3s3.8 1.3 3.8 3.4V19h-3.5v-7c0-.5-.5-1.5-1.7-1.5s-1.7 1.2-1.7 1.7V19h-3.5V4.2h3.5v5h.1zm-11.3 1.5V8.3h1.5V5h3.5v3.3h1.9v2.4h-1.9v5.1c0 .4.2.8 1.2.8h.8V19H62c-1.8 0-2.9-1.2-2.9-2.9v-5.4h-1.5zM50 8.3v2.4h1.5V19H55v-8.3h1.9V8.3H55v-.9c0-.4.2-.8 1.2-.8h.8V4.2h-2.6c-1.7 0-2.9 1.2-2.9 2.9v1.2H50zm59.5 7.6c0-3-2.8-3.1-4.8-3.6-1.2-.2-1.8-.6-1.7-1.1.1-.6.4-.9 1.5-.9 1.2 0 1.6.5 1.6 1.5h3.1c0-2.8-1.8-3.9-4.8-3.9-3.6 0-4.8 1.9-4.8 3.6 0 .9.6 1.8 1.4 2.2s2 .7 3.1.9c1.1.3 2.1.5 2.1 1.2 0 .8-.6 1.1-1.8 1.1s-1.9-.5-1.9-1.7h-3.2c0 3.1 2.3 4 5.2 4 3.4.1 5-1.6 5-3.3zm39-4.1h-3.1c0-2.5 1.9-3.9 4.7-3.9 3.6 0 5 1.9 5 3.6v6.1c0 .2 0 1 .3 1.3H152l-.2-.9c-.7.7-1.4 1.2-3.3 1.3-2.1.2-4.1-.8-4.1-3.1V16c0-1 .8-2.1 1.7-2.5 1-.5 2.2-.7 3.8-.9 1.5-.3 1.8-.7 1.8-1.1 0-.7-.4-1-1.6-1-1.2-.1-1.6.4-1.6 1.3zm3.2 2.3l-2.3.6c-.6.2-1.4.3-1.5 1.1s.6 1.4 1.9 1.2a2.07 2.07 0 0 0 1.8-2v-.9h.1zm-37.4-2.3h-3.1c0-2.5 1.9-3.9 4.7-3.9 3.6 0 5 1.9 5 3.6v6.1c0 .2 0 1 .3 1.3h-3.3l-.2-.9c-.7.7-1.4 1.2-3.3 1.3-2.1.2-4.1-.8-4.1-3.1V16c0-1 .8-2.1 1.7-2.5 1-.5 2.2-.7 3.8-.9 1.5-.3 1.8-.7 1.8-1.1 0-.7-.4-1-1.6-1-1.3-.1-1.7.4-1.7 1.3zm3.3 2.3l-2.3.6c-.6.2-1.4.3-1.5 1.1s.7 1.4 2 1.2a2.07 2.07 0 0 0 1.8-2v-.9zm-37.1-2.3h-3.1c0-2.5 1.9-3.9 4.7-3.9 3.6 0 5 1.9 5 3.6v6.1c0 .2 0 1 .3 1.3h-3.3l-.3-.9c-.7.7-1.4 1.2-3.3 1.3-2.1.2-4.1-.8-4.1-3.1V16c0-1 .8-2.1 1.7-2.5 1.1-.5 2.2-.7 3.8-.9 1.5-.3 1.8-.7 1.8-1.1 0-.7-.4-1-1.6-1-1.2-.1-1.6.4-1.6 1.3zm3.2 2.3l-2.3.6c-.6.2-1.4.3-1.4 1.1-.1.8.6 1.4 1.9 1.2a2.07 2.07 0 0 0 1.8-2v-.9zM11 0c6.1 0 11.1 5 11.1 11.1s-5 11-11.1 11-11-5-11-11C0 5 5 0 11 0zm0 .8C16.6.8 21.2 5.4 21.2 11S16.6 21.2 11 21.2.8 16.6.8 11C.8 5.5 5.4.8 11 .8zm5.2 15.3c-4.9-.8-9.4-4.8-14.4-6.8l.1-.4 1.5.4.2-.3 4.8 2 .1.3-2.9-1v.1c1.5 1 3.1 1.6 4.6 1.2 1.1-.2 2.4-1.6 2.9-2.7l1.6-.1c1.9-.1 3.9.3 5.9.6l-.3.4c-1.6-.3-3.3-.4-4.9-.5l-.2.3c1.6.1 3.2.2 4.8.5l-.4.4c-1.6-.2-3.2-.4-4.8-.3l-.2.3a37.08 37.08 0 0 1 4.7.3l-.3.4c-1.6-.1-3.2-.3-4.8-.1l-.2.3c1.5 0 3.2 0 4.6.2l-.3.4c-1.7-.1-3.6-.1-5.4.4l-1.4.5.3.3c1.7 1.6 3.3 2 5 2.1l-.4.8h-.2z" fill-rule="evenodd" fill="#ef7d00"/></svg>